<?xml version="1.0" encoding="utf-8"?>
<!-- Generator: Adobe Illustrator 22.1.0, SVG Export Plug-In . SVG Version: 6.00 Build 0)  -->
<svg version="1.1" id="Layer_1" xmlns="http://www.w3.org/2000/svg" xmlns:xlink="http://www.w3.org/1999/xlink" x="0px" y="0px"
	 viewBox="0 0 438 361" style="enable-background:new 0 0 438 361;" xml:space="preserve">
<style type="text/css">
	.st0{fill:none;stroke:#000000;stroke-linecap:round;stroke-linejoin:round;stroke-miterlimit:10;}
	.st1{fill:none;}
	.st2{fill:#F5919A;}
	.st3{fill:#ABABAB;}
	.st4{fill:#F59099;}
	.st5{fill:#B6B8BA;}
</style>
<line class="st0" x1="142.1" y1="259.7" x2="293.9" y2="259.7"/>
<g>
	<path d="M249.5,93.7l1.1,1l6.2-6.7l-1.1-1l0.8-0.8l3.2,2.9l-0.8,0.8l-1.1-1l-6.2,6.7l1.1,1l-0.8,0.8l-3.2-2.9L249.5,93.7z"/>
	<path d="M258.8,95.7c1.1-0.1,2.3,0.1,3,0.8c0.7,0.6,0.9,1.3,0.8,2c-0.1,0.5-0.4,0.9-0.8,1.4l-2.7,2.9l0.9,0.8l-0.7,0.8l-2.6-2.4
		l0.7-0.8l0.8,0.8l2.5-2.7c0.3-0.3,0.5-0.6,0.5-0.9c0.1-0.5,0-0.9-0.5-1.3c-0.7-0.6-1.7-0.8-2.7-0.7l-2.8,3l0.8,0.8l-0.7,0.8
		l-2.6-2.4l0.7-0.8l0.9,0.8l3.6-3.9l-0.9-0.8l0.7-0.8l1.7,1.6L258.8,95.7z"/>
	<path d="M264.7,100.7l-0.7-0.7l0.7-0.8l2.5,2.3l-0.7,0.7l-0.9-0.8l-1.7,5l4.9-2.1l-0.9-0.8l0.7-0.7l2.5,2.3l-0.7,0.8l-0.7-0.7
		L263,108l-0.5-0.4L264.7,100.7z"/>
	<path d="M267.5,110.4l0.9,0.8l3.6-3.9l-0.9-0.8l0.7-0.8l1.8,1.7l-4.3,4.6l0.9,0.8l-0.7,0.8l-2.7-2.5L267.5,110.4z M274.2,104.2
		c0.4-0.4,1-0.4,1.4-0.1c0.4,0.3,0.4,1,0,1.3s-1,0.4-1.3,0.1C273.9,105.2,273.9,104.6,274.2,104.2z"/>
</g>
<g>
	<path d="M272,115c0.1-0.3,0.3-0.6,0.6-0.9l3.1-3.3l-1-0.9l0.7-0.8l1,0.9l1.2-1.3l1.2,0.5l-1.5,1.6l1.7,1.5l-0.7,0.8l-1.7-1.5
		l-3,3.2c-0.2,0.2-0.3,0.3-0.3,0.5c-0.1,0.3,0,0.6,0.4,0.9c0.3,0.3,0.8,0.5,1.3,0.6l-0.9,0.7c-0.4-0.1-0.9-0.3-1.4-0.8
		C272,116.2,271.8,115.6,272,115z"/>
</g>
<g>
	<path d="M278.1,117.1c-1,1.3-0.7,2.6,0.4,3.7c0.7,0.7,1.5,0.9,2.4,1.2l-0.9,0.8c-0.9-0.2-1.7-0.6-2.4-1.3c-1.7-1.6-1.8-3.8-0.3-5.4
		c1.4-1.5,3.6-1.9,5.2-0.4c1.6,1.5,1.4,3.5,0.1,4.8c-0.2,0.2-0.4,0.4-0.5,0.5L278.1,117.1z M278.8,116.4l3.3,3.1
		c0.8-1,0.9-2.2-0.1-3.1C281.1,115.6,279.8,115.5,278.8,116.4z"/>
</g>
<line class="st0" x1="282" y1="125.6" x2="417.9" y2="251.2"/>
<g>
	<path d="M16,251.2l1.1-1l-6.1-6.7l-1.1,1l-0.8-0.8l3.1-2.9c2.9-2.7,6.3-2.8,8.6-0.3c2.3,2.5,2.2,5.9-0.9,8.7l-3.1,2.8L16,251.2z
		 M19.2,248.3c2.5-2.3,2.5-4.8,0.6-6.9c-1.8-2-4.5-1.9-6.8,0.3l-1.1,1l6.1,6.7L19.2,248.3z"/>
	<path d="M24.6,240.3c1.2,1.1,2.5,0.9,3.7-0.1c0.7-0.7,1.1-1.4,1.4-2.3l0.7,0.9c-0.2,0.9-0.8,1.7-1.5,2.3c-1.7,1.6-3.9,1.5-5.4-0.1
		c-1.4-1.5-1.6-3.7,0.1-5.3c1.6-1.5,3.6-1.1,4.8,0.3c0.2,0.2,0.3,0.4,0.4,0.6L24.6,240.3z M24,239.6l3.3-3c-0.9-0.9-2.1-1.1-3.1-0.1
		C23.4,237.2,23.2,238.5,24,239.6z"/>
	<path d="M31.3,237.3l0.9-0.8l-7.1-7.8l-0.9,0.8l-0.7-0.8l1.8-1.6l7.8,8.5l0.9-0.8l0.7,0.8l-2.7,2.5L31.3,237.3z"/>
	<path d="M29.3,226.7c-0.3-0.4-0.3-1,0.1-1.4c0.4-0.3,1-0.3,1.3,0.1c0.4,0.4,0.3,1-0.1,1.3C30.3,227.1,29.7,227.1,29.3,226.7z
		 M35,234l0.9-0.8l-3.6-3.9l-0.9,0.8l-0.7-0.8l1.8-1.6l4.3,4.7l0.9-0.8l0.7,0.8l-2.7,2.5L35,234z"/>
	<path d="M35.3,226.5l-0.7,0.7l-0.7-0.8l2.5-2.3l0.7,0.8l-0.9,0.8l4.9,2.1l-1.7-5l-0.9,0.8l-0.7-0.8l2.5-2.3l0.7,0.8l-0.7,0.7
		l2.1,6.9l-0.5,0.4L35.3,226.5z"/>
	<path d="M44.6,222c1.2,1.1,2.5,0.9,3.7-0.1c0.7-0.7,1.1-1.4,1.4-2.3l0.7,0.9c-0.2,0.9-0.8,1.7-1.5,2.3c-1.7,1.6-3.9,1.5-5.4-0.1
		c-1.4-1.5-1.6-3.7,0.1-5.3c1.6-1.5,3.6-1.1,4.8,0.3c0.2,0.2,0.3,0.4,0.4,0.6L44.6,222z M44,221.3l3.3-3c-0.9-0.9-2.1-1.1-3.1-0.1
		C43.4,218.9,43.2,220.1,44,221.3z"/>
</g>
<g>
	<path d="M52.2,210.7c0.3,0.3,0.3,0.9,0,1.2c-0.3,0.3-0.8,0.3-1.1,0.1c-0.3,0.5-0.4,1.4-0.1,2.2l2.5,2.7l1-0.9l0.7,0.8l-2.8,2.5
		l-0.7-0.8l0.9-0.8l-3.6-3.9l-0.9,0.8l-0.7-0.8l1.7-1.6l1.1,1.2c-0.3-1.1-0.2-2.3,0.4-2.8C51.3,210.3,51.9,210.3,52.2,210.7z"/>
</g>
<line class="st0" x1="57.3" y1="214.7" x2="185.4" y2="96"/>
<g>
	<path d="M45.5,342.8c0-0.7,0.4-1.1,0.9-1.1c0.5,0,0.9,0.4,0.9,0.8c0,0.3-0.1,0.6-0.3,0.8c0.4,0.4,1.2,0.7,2.3,0.7
		c1.5,0,2.4-0.8,2.4-2c0-1.2-1.1-1.7-2.4-2.2c-1.9-0.7-3.4-1.5-3.4-3.4c0-1.7,1.4-3,3.5-3c1.9,0,3.4,1.1,3.4,2.2c0,0.6-0.4,1-0.9,1
		c-0.6,0-0.9-0.4-0.9-0.9c0-0.3,0.1-0.5,0.2-0.7c-0.3-0.3-1.1-0.6-1.8-0.6c-1.4,0-2.2,0.7-2.2,1.8c0,1.2,1.1,1.7,2.5,2.3
		c1.9,0.7,3.3,1.4,3.3,3.3c0,2-1.6,3.2-3.7,3.2C47.1,345.2,45.5,344,45.5,342.8z"/>
	<path d="M54.6,333.4v-1H57v6.6c0.7-0.8,1.7-1.5,2.7-1.5c0.9,0,1.5,0.3,1.9,0.8c0.3,0.4,0.5,1,0.5,1.7v4h1.2v1h-3.5v-1h1.2v-3.7
		c0-0.5-0.1-0.9-0.3-1.2c-0.2-0.3-0.6-0.5-1.1-0.5c-0.9,0-1.8,0.6-2.4,1.3v4.1h1.2v1h-3.5v-1h1.2v-10.6H54.6z"/>
	<path d="M64.4,343c0-1.3,1.2-2.2,2.8-2.2c0.8,0,1.7,0.2,2.1,0.3v-1c0-0.4-0.1-0.8-0.3-1c-0.3-0.4-0.9-0.6-1.6-0.6
		c-0.6,0-0.9,0.2-1.1,0.3c0.1,0.1,0.1,0.3,0.1,0.4c0,0.4-0.3,0.8-0.8,0.8c-0.4,0-0.8-0.3-0.8-0.8c0-0.8,1-1.7,2.7-1.7
		c1.1,0,1.9,0.3,2.4,0.9c0.4,0.4,0.6,1,0.6,1.6v4h1.2v1h-2.3v-0.9c-0.6,0.6-1.6,1.1-2.6,1.1C65.4,345.1,64.4,344.3,64.4,343z
		 M69.4,343.2v-1.2c-0.6-0.2-1.3-0.3-2-0.3c-1.2,0-1.8,0.6-1.8,1.3c0,0.7,0.5,1.2,1.5,1.2C68,344.2,68.8,343.7,69.4,343.2z"/>
	<path d="M78.5,338.5c0,0.5-0.4,0.9-0.8,0.9c-0.4,0-0.8-0.3-0.9-0.6c-0.6,0.2-1.2,0.8-1.6,1.6v3.7h1.4v1h-3.7v-1H74v-5.3h-1.2v-1.1
		h2.3v1.7c0.6-1,1.4-1.8,2.2-1.8C78.1,337.5,78.5,338,78.5,338.5z"/>
</g>
<g>
	<path d="M80.9,341.7c0.2,1.6,1.2,2.4,2.8,2.4c1,0,1.7-0.3,2.6-0.8l-0.1,1.2c-0.8,0.5-1.7,0.7-2.6,0.7c-2.3,0-3.9-1.6-3.9-3.8
		c0-2,1.4-3.8,3.6-3.8c2.2,0,3.4,1.6,3.4,3.5c0,0.3,0,0.5-0.1,0.7H80.9z M80.9,340.7h4.5c-0.1-1.3-0.8-2.2-2.2-2.2
		C82.1,338.5,81.1,339.3,80.9,340.7z"/>
</g>
<line class="st0" x1="89.6" y1="345" x2="391.4" y2="345"/>
<path class="st1" d="M67.9,281.6c50.9,0,101.8,0,152.8,0c0-0.1,132.2-0.5,153-0.6c2.7,0,4.3-1.9,3.4-4.5c-0.5-1.6-1.4-3.2-2.5-4.3
	c-26.2-24.7-52.5-49.3-78.7-74c-24.7-23.3-49.6-46.4-75.6-68.3c-1-0.8-1.6-0.9-2.6-0.1L63.2,279.1C64.2,280.6,65.9,281.6,67.9,281.6
	z"/>
<path class="st2" d="M226.8,87.2c0.3-2.5-0.3-2,2.1-2.7c17.7-5,29-22.8,26.2-40.8c-3.2-20-21.6-33.8-41.4-30.6
	c-15,2.4-25,11.3-29.8,25.7c-1,3.1-1.9,6.4-1.2,9.7c0.7,4,4.7,7,8.6,6.6c4.4-0.4,7.5-3.8,7.6-8.1c0-0.7,0-1.3,0.1-2
	c2.3-10.8,12.6-17.9,23.5-16.1c10.5,1.8,17.9,11.3,17.1,21.9c-0.9,10.6-9.8,18.9-20.4,18.9c-2.7,0-5.4,0-8.3,0
	c0,5.7-0.1,11.3,0,16.8c0,1.9-0.6,3-2,4.2c-29.2,24.3-57.6,49.4-85.3,75.4c-31.3,29.4-62.6,58.9-93.9,88.3c-8,7.6-11.2,16.9-10,27.7
	c0.7,5.9,2.6,11.1,5.6,15.5l37.8-18.7l0,0c-0.8-1.2-1.1-2.8-0.6-4.3c0.3-1,1.1-1.9,1.9-2.6c21.8-21,43.6-41.9,65.3-62.9
	c22-21.3,44.3-42.2,67.6-62.1c6.8-5.8,13.6-11.5,20.4-17.3l11.4-38.3C227.8,90.4,226.6,89.4,226.8,87.2z"/>
<path class="st3" d="M373.7,281c-20.9,0.1-153,0.4-153,0.6c-50.9,0-101.8,0-152.8,0c-2,0-3.7-1-4.7-2.5l-37.8,18.7
	c3.1,4.5,7.4,8.3,12.7,11.2c5.6,3.1,11.6,4,17.9,4c61.3-0.1,122.6-0.1,183.9-0.2c27.4,0,54.8-0.2,82.1-0.3
	c22.1-0.1,44.2-0.2,66.4-0.1c3.3,0,6.3-0.7,9.2-2c6.3-2.8,11.4-7.2,14.9-12.7l0,0L373.7,281z"/>
<path class="st3" d="M417.6,274.5c-1.2-8.2-5.3-14.8-11.4-20.4c-27.1-25.2-54.2-50.6-81.1-76c-31.3-29.5-63-58.7-95.9-86.6
	l-11.4,38.3c1-0.9,1.6-0.8,2.6,0.1c26,21.9,50.9,45,75.6,68.3c26.2,24.7,52.5,49.3,78.7,74c1.2,1.1,2,2.7,2.5,4.3
	c0.9,2.6-0.7,4.5-3.4,4.5l38.8,16.7l0,0C416.9,291.1,418.8,282.9,417.6,274.5z"/>
<path d="M290,221.8c-0.5-0.8-1.1-1.2-1.9-1.3c-0.4-0.3-0.8-0.3-1.3-0.5c-0.4,0.1-0.5,0.1-0.5,0.1c-0.1,0-0.5,0.1-0.5,0.1v0.4
	c0.7,0.4,0.8,1.1,0.8,1.9c0,0.3,0,0.4-0.1,0.5c-0.9,2.5-1.5,5.1-2.3,7.6c-0.4,1.6-0.9,3.3-1.6,4.9c-1.1,2.7-1.7,5.2-3.1,7.8
	c-0.4,1.7-1.2,3.7-2,5.6c-1.1,2-2.3,4-3.1,6.1c-0.8,1.6-2.9,3.1-4.1,3.9c-0.1,0.1,0.7,0.3,0.5,0.4c-0.1,0.3-0.3,0.3-0.4,0.3
	c-0.1,0-0.1,0-0.1-0.3c-0.1-0.3-1.1-0.4-1.1-0.5V258c-0.3-2-0.9-4-0.9-5.9v-0.4c0-2.3,0.1-4.5,0.3-6.7c0.3-3.3,1.5-6.7,1.9-10.2
	c0.3-1.6,1.9-3.3,2-4.9V229c0-0.1,0-0.4,0.1-0.5c-0.1-0.3-0.3-0.5-0.5-0.5c-0.4-0.1-0.7-0.5-0.9-0.7c0-0.3-0.3-0.4-0.4-0.7
	c-0.1-0.1-0.1-0.3-0.1-0.3s-0.1,0-0.1,0.1c-0.1,0-0.3-0.1-0.5-0.4c-0.1,0-0.3,0-0.4,0.1c-0.1,0-0.1,0-0.1,0.1v0.1
	c-0.4-0.5-0.8-0.5-1.1-0.8c-0.1-0.1-0.3-0.1-0.4-0.1c-0.3,0-0.7,0.1-0.9,0.4c-0.3,0.1-0.4,0.5-0.4,0.8l-0.8,2.3
	c-0.4,1.2-0.9,2.4-1.9,3.6c-0.8,1.5-1.7,2.9-2.8,4.5c-1.3,1.9-2.5,3.9-4.1,5.6l-0.5,0.7c-0.5,0.5-3.1,3.9-3.6,4.4h-0.1v-0.3
	c0-0.5,0.1-1.5,0.1-1.9v-0.1h-0.3l0.3-1.2c0.4-1.5,0.9-2.9,1.5-4.3c0.4-2.8,2-5.7,2.5-8.6c0.4-0.8,0.5-1.6,0.8-2.4
	c0-0.4,0-0.7,0.1-1.1c0-0.1-0.3-0.3-0.5-0.3H257c-0.3,0-0.3,0.1-0.4,0.1s-0.3,0-0.3-0.1v-0.1c0.1-0.3,0.3-0.5,0.3-0.7
	s-0.1-0.1-0.1-0.3s-0.3-0.1-0.3-0.1c-0.4,0.3-0.5,0.7-0.8,0.9v-0.8c0,0,0-0.3-0.1-0.3h-0.1c-0.1,0-0.1,0-0.3,0.1s-0.3,0.1-0.3,0.1
	c-0.1,0-0.1,0-0.3-0.1c-0.5-0.4-0.9-0.5-1.2-0.5c-0.4,0-0.7,0.3-0.9,0.8l-0.9,1.7c-0.9,1.8-1.2,3.4-1.7,5.1
	c-0.5,0.3-1.1,0.5-1.8,0.8c-0.9,0.5-2,0.9-3.2,1.2c-1.6,0.3-3.1,0.5-4.7,0.9c-0.4,0-0.5,0-0.5-0.4c0-0.1,0-0.1,0-0.3
	c0-0.1,0-0.4,0.1-0.5c-0.3-0.5-0.4-0.9-0.5-1.6c-0.1-0.7-0.4-1.2-1.3-1.7c-0.4-0.1-0.7-0.3-1.2-0.3c-0.1,0-0.3-0.1-0.8-0.1
	c-0.7,0-1.3,0-1.9,0.3c-1.7,0.7-3.1,1.6-3.3,3.1v0.4c-0.1,0.1-0.1,0.4-0.1,0.5c0,0.4,0.3,0.9,0.7,1.1l0.7,0.5
	c0.8,0.4,1.6,1.1,2.5,1.3c0.5,0.1,0.7,0.3,0.7,0.5v0.7c-0.1,0.8-0.4,1.3-0.5,2c-0.1,1.2-0.7,2.5-1.1,3.5l-1.5,3.2
	c-0.8,1.9-2,3.7-3.3,5.3c-0.4,0.4-0.9,0.7-1.3,0.9c-0.4,0.4-0.7,0.4-0.9,0.4s-0.7-0.3-1.1-0.5l-0.5-0.4c-0.1-0.4-0.5-0.9-0.5-1.5
	c-0.4-0.7-0.4-1.3-0.4-2c0-0.3,0-0.7,0-0.9c-0.1-0.3-0.1-0.4-0.1-0.7s0-0.4,0.1-0.7l0.4-4.5c0.4-1.3,0.4-2.5,0.8-3.7
	c0-0.9,0.1-1.6,0.1-2.3c0.7-1.5,1.2-3.2,1.6-4.8c0.4-0.8,0.5-2,0.9-2.8c0.7-1.5,1.7-3.2,2.4-4.9c0.5-0.7,0.8-1.6,1.6-2.3v-0.3
	c0-0.3,0-0.5-0.1-0.7c-0.3-0.1-0.4-0.3-0.4-0.3c-0.5-0.3-0.8-0.4-1.2-0.4h-0.7c-0.3-0.1-0.7-0.3-1.1-0.3c-0.7,0-1.2,0.1-1.6,0.5
	l-1.1,0.8c-0.7,0.9-1.5,2.1-2.3,3.1c-0.8,1.3-1.6,2.9-2.5,4.4c-0.1,0.1-0.1,0.3-0.1,0.3c-0.1,0.4-0.1,0.7-0.4,0.9
	c-0.1,1.1-0.7,1.9-0.9,2.9c-0.5,1.2-1.1,2.8-1.5,4.3c0,0.4-0.1,0.9-0.1,1.6c-0.1,0.5-0.3,0.9-0.3,1.5l-0.4,2.8c0,0,0,0,0,0
	c-0.8,0.9-1.6,1.7-2.4,2.5c-2.2,2.1-4.3,4-5.8,5.1c-1,0.5-1.9,1.1-2.9,1.5c-0.1,0-0.4,0-0.4-0.3c-0.1,0-0.1-0.4-0.1-0.5
	c0.1-1.9,0.1-3.6,0.4-5.2l0.4-4.5l0.7-4c0.5-2.7,1.1-5.3,1.9-8.2c0-0.5,0.2-1.1,0.2-1.6c0-0.5-0.1-0.9-0.1-1.3
	c-0.2-2.4-1.9-3.3-4.2-3.6c-0.4,0-0.9,0-1.2,0.2c-0.3,0.3-0.6,0.5-0.8,0.6c-2.2,1.5-4.3,3.6-6.1,5.7c-2.5,2.7-4.7,5.7-6.9,8.9
	l-0.3,0.3c0,0.1-0.3,0.1-0.4,0.1c-0.1,0-0.1-0.1-0.1-0.1l0-0.9c0-0.3,0.3-0.8,0.3-1.2c0.4-2.4,1.1-4.9,1.6-7.4
	c0.3-1.6,0.9-3.3,1.2-4.9c0.3-1.3,0.6-2.7,1.2-4c0.3-0.7,0.7-1.3,1-2.2c1.2-2.6,2.3-5.1,3.6-7.5c1.3-3.6,2.6-6.7,4.2-10
	c0.9-2,1.7-3.8,2.3-5.7c0.4-0.7,0.6-1,0.6-1.7c0-0.5-0.5-1.4-1-1.8c-0.8-0.7-1.6-1-2.4-1.3c-0.3,0-0.4-0.1-0.7-0.2
	c-0.4,0-0.7,0.1-1.1,0.4s-1.1,0.8-1.4,1.2c-1.4,1.4-2.1,2.9-3.1,4.3c-1.1,1.6-1.6,3.2-2.4,4.7c-0.7,1.2-1.4,2.9-1.9,4.5
	c-1,1.7-1.6,3.7-2.1,5.7c-1.6,4.1-3,8.2-3.9,12.4c-0.5,1.6-0.9,3.3-1.3,5.3c-0.1,0.1-0.1,0.4-0.2,0.7c-0.1,2.1-1.2,3.8-1.3,5.7
	l0,0.7c0,0.4-0.1,0.8-0.1,1.2c-2.3,1.3-4.3,2.9-5.8,4.7c-2.4,2.2-4.9,3.5-6.8,6.1c-0.1,0.2-0.7,0.6-0.9,1.1c-0.1,0-0.2,0.2-0.4,0.2
	c-0.3,0-0.3-0.1-0.5-0.5c0-0.1-0.2-0.4-0.2-0.5c-1.6-2.6-2.8-4.3-4.8-6.3c-1.6-1.1-2.1-1.3-3.4-2.9c-0.6-0.5-0.7-1.1-1.3-1.7
	c-0.3-0.5-0.6-1.1-0.6-1.7c0-0.1-0.1-0.4-0.1-0.5c-0.1-0.4,0.2-0.8,0.1-1.2c0.6-3.3,1.4-6.3,3.5-9c2.1-4.1,4.8-6.1,7.1-6.4
	c1.7-0.2,3,0.5,3.5,2.1c0,0.3,0.3,0.2,0.4,0.2c0.1,0,0.1,0,0.1,0l0,0.1c-0.5,2.1-1.1,2.5-1.1,3.9c-0.1,0.2-0.1,0.3-0.1,0.4
	c0,0.1,0,0.3,0.2,0.2c0.2,0.1,0.2,0.1,0.2,0.2c0,0.3-0.2,0.6-0.2,0.7c0,0.1,0.2,0.2,0.6,0.2c1.5-0.2,2.8-0.9,3.4-2.1
	c0.4-1,1.1-3.7,1.1-6c0-0.1,0-0.3-0.1-0.4c-0.5-3.3-5.8-4.5-8.5-4.5l-3,0.4c-3.5,0.9-6.2,3.2-9,6.3c-2,2.4-3.6,5.4-4.6,8.6
	c-0.3,1-0.3,1.8-0.6,2.8l-0.2,1.4c0,0.3,0.1,0.7,0.3,0.9c0.1,0.4,0.1,0.8,0.1,1.1c0.1,0.9,0.4,1.7,0.8,2.5c0.7,1,1,1.5,1.8,2.2
	c1.6,1.9,2.2,2.3,4,3.6c3.2,2.4,4.3,4.8,4.9,8.8c0.1,0.7,0.2,1.3,0.3,2.1c-0.1,1.1-1.4,1.5-1.9,2.6c-1,1.4-4.4,3.1-5.5,4.4
	c-0.7,1.6-1.7,3.6-1.8,5.3c0.7,1.9,2.1,2.8,4.3,2.5c0.8-0.1,1.6-0.4,2.5-0.8c0.3,0,0.5,0.1,0.8,0c0.5-0.1,0.9-0.3,1.1-0.7
	c2.4-1.8,3.9-4.1,4.7-6.1c1.1-1.8,1.4-3.4,1.7-5l0-1.1c0-0.3-0.1-0.7,0.1-1.2c0.1-1,1.3-1.1,2-1.9c0.2-0.2,0.4-0.3,0.3-0.5l0-0.1
	c0-0.1-0.1,0,0-0.1c2.5-2.6,4.8-3.6,7.2-6.3c1.1-1.4,2.3-2.7,3.6-3.8c0,0.3-0.1,0.6-0.1,0.9l0,0.5c-0.3,1.5-0.6,2.8-0.7,4.4
	c0,0.8-0.1,1.5-0.3,2c-0.2,1.7-0.8,3.3-0.8,5.2c0,0.4,0.2,0.9,0.9,1.2c0.3,0.3,0.9,0.4,1.2,0.6c0.4,0.4,0.5,0.8,1,0.8l0.3,0
	c0,0,0.3,0.1,0.4,0.3c0.3,0.3,0.5,0.3,0.8,0.3c0.4,0,0.8-0.1,1-0.5c0.1-0.1,0.2-0.5,0.2-0.8c0.3-1.3,0.8-2.6,1.3-4.1
	c1-2.9,2.7-5.8,4.6-8.7c1.1-2.1,2.5-4.1,4-5.9c1.5-2.2,3.1-4.7,5-6.5c0.8-1,1.7-1.9,2.8-2.7c0-0.1,0.1-0.1,0.3-0.3l0.1,0
	c0.1,0,0.3,0,0.3,0.1s0,0.1-0.1,0.3c-0.3,1.1-0.6,1.9-0.8,2.9c-0.9,2.4-1.4,4.9-1.9,7.7c-0.5,1.7-0.8,3.6-0.9,5.3
	c-0.1,0.4-0.2,0.9-0.2,1.3l-0.1,2.7c0,0.9,0.1,1.7,0.2,2.5c0.4,1.3,1.1,2.2,2.2,3.2c0.1,0,0.3,0.3,0.7,0.4c1.4,0.9,2.4,1.3,3.3,1.3
	c0.8,0,1.6-0.2,3-0.7c2.3-0.9,4.3-3.3,6.9-5.9c0.2-0.2,0.3-0.4,0.5-0.6c0,0.1,0,0.2,0,0.2c0,0.1,0,0.1,0.1,0.3c0,0.5,0.3,1.1,0.3,2
	c0.1,1.2,0.9,2.3,2.1,3.2c0.9,0.8,2,1.2,3.2,1.6l1.5,0.4c1.2,0.5,2.5,0.8,3.6,0.9h0.4c2,0,4-0.9,5.1-2.1c0.4-0.8,1.1-1.5,1.5-2.1
	c1.1-1.5,1.6-3.1,2.4-4.7c0.7-1.6,1.1-3.2,1.5-4.9c0.8-1.6,0.8-3.1,1.2-4.7c0-0.7,0.1-0.7,0.8-0.8c0.5,0,1.3,0,1.9-0.1
	c1.6,0,3.2-0.4,4.9-0.8c0.6-0.2,1.2-0.4,1.8-0.6c-0.2,1.1-0.4,2.2-0.8,3.2c-0.5,2.3-1.1,4.7-1.1,7.1v0.8c0,1.6,0.5,3.1,2.3,4.1
	c0.3,0,0.5,0.3,0.8,0.4c0.3,0.5,0.5,0.8,1.2,0.9c0.3,0,0.5,0.1,0.7,0.3c0.3,0.1,0.5,0.3,0.8,0.3s0.5-0.1,0.7-0.3l1.1-0.9
	c1.2-1.6,2.1-3.3,3.1-4.7c1.3-1.9,2.4-3.7,3.5-5.5c0.3-0.5,0.7-0.9,1.1-1.3c0-0.1,0.1-0.1,0.1-0.1l0.1,0.1v0.7
	c-0.1,0.9-0.1,2-0.4,3.1c-0.1,1.3-0.3,2.8-0.3,4.1v4c0.1,1.1,0.1,2.1,0.4,3.2c0.1,0.3,0.1,0.5,0.1,0.8c0.5,1.2,0.9,2.4,1.7,3.7
	c0.3,0.3,0.8,0.7,0.9,1.1c0.7,0.7,1.6,1.2,2.3,1.6c1.1,1.1,2.3,1.3,3.5,1.9c0.3,0.1,0.7,0.3,0.9,0.3c0.3,0,0.7-0.1,1.1-0.3
	c1.1-0.4,2-1.1,2.4-1.6c1.2-1.6,2.4-3.1,3.5-4.7c0.9-1.6,2-3.5,2.7-5.5c0.9-2.1,2.8-4.4,3.5-6.7c0.4-1.1,0.9-2.4,1.1-3.6
	c2.3-5.5,3.7-11.8,5.1-17.8c0-0.4,0-0.9,0-1.3c0-0.4,0-0.8,0.1-1.3C290.7,222.9,290.7,222.2,290,221.8z M232,235v-0.1
	c0.3,0,0.3,0,0.3,0.1H232z M232.9,235.3h-0.3c0,0-0.1,0-0.1-0.1l0.5-1.1h0.4L232.9,235.3z M234.4,235.2l-0.1-0.1
	c0-0.1,0.1-0.1,0.3-0.3h0.1C234.7,234.9,234.5,235.2,234.4,235.2z M200.9,193.8c0,0.4-0.2,0.7-0.6,0.6l0-0.1
	C200.3,194,200.6,193.9,200.9,193.8z M200.2,193.5l0.1,0c-0.1,0.1-0.3,0.1-0.3,0.3C200.1,193.6,200.2,193.6,200.2,193.5z M200,194.7
	l-0.1,0.1C199.9,194.7,199.9,194.7,200,194.7z M199.5,193.9c0,0.1-0.1,0.1-0.1,0.1S199.4,193.9,199.5,193.9z M200.9,195.9l0.3,0
	c0.1,0,0.3,0.1,0.3,0.3c0,0.5-0.6,1.6-0.7,1.6c-0.1,0-8.6,21-8.8,21.1C191.8,219,199.8,196.3,200.9,195.9z M153.2,229.8
	c0,0,0-0.1,0.1-0.2L153.2,229.8z M154.2,231.2l0-1.2c0.5-1.2,1.5-2.1,1.8-3.2c0.2-0.3,0.3-0.6,0.6-0.8
	C156.3,227.8,155.1,229.2,154.2,231.2z M157,229c0.3-0.5,0.3-1,1-1.6c-0.1-0.4-0.1-0.5,0.1-0.5c0,0.1,0.2,0.2,0.2,0.4
	c0,0.1-0.1,0.2-0.1,0.2l-0.1,0c-0.1,0.5-0.6,1.6-0.7,1.7C157.3,229.1,157.2,229.2,157,229z M157.1,263.4l-0.9,0.1l0-0.1l1.3-0.2
	c0.7-0.1,1.6-0.2,1.8-0.4C159.1,263.2,157.9,263.3,157.1,263.4z M162.9,263.3c-0.1,0-0.2,0.4-0.3,0.5c-0.1,0.2-0.2,0.2-0.2,0.2
	l-0.1,0l0.2-0.2c-0.1-0.4,0.1-0.5,0.4-1.1c0-0.1,0.1-0.3,0.1-0.3c0.3,0.1,0.5,0.3,0.5,0.3C162.9,263.2,162.9,263.2,162.9,263.3z
	 M188.2,247.1c0,0.4-0.2,0.7-0.4,0.9l-0.1,0l0-0.1C187.6,247.6,187.8,247.4,188.2,247.1c0-0.3,0-0.4,0.4-0.5L188.2,247.1z
	 M188.7,246.5l-0.1,0l0.1-0.1C188.7,246.3,188.9,246.3,188.7,246.5z M189.4,245l0-0.1l0.1-0.1C189.6,244.9,189.5,244.9,189.4,245z
	 M189.7,244.8c0.1-0.3,0.3-0.5,0.4-0.5L189.7,244.8z M190.6,243.4c0,0.1-0.1,0.1-0.1,0.1c0,0.1-0.1,0.3-0.1,0.4c0-0.1,0-0.3,0.1-0.4
	L190.6,243.4l0.1-0.1C190.7,243.5,190.6,243.4,190.6,243.4z M192.6,240.3c0,0.1-0.1,0.1-0.1,0.1L192.6,240.3l0.2-0.3
	C192.7,240.2,192.7,240.3,192.6,240.3z M193.1,239.4c-0.1,0.1-0.1,0.1-0.1,0.3c0-0.1,0-0.3,0.1-0.4c0,0,0.1,0,0.3-0.1L193.1,239.4z
	 M194.9,236.9c0,0,0-0.1,0.1-0.3L194.9,236.9z M195.2,236.7c0-0.1,0.1-0.1,0.3-0.1C195.5,236.5,195.4,236.7,195.2,236.7z
	 M195.9,235.7c0,0,0-0.1,0.1-0.3l0.1,0L195.9,235.7z M196.2,235.3c0-0.1,0-0.1,0.1-0.4C196.3,235.2,196.2,235.2,196.2,235.3z
	 M196.9,234.6c0-0.1,0-0.3,0.1-0.4C197,234.3,196.9,234.6,196.9,234.6z M197.5,232.2c0,0.4-0.4,0.8-0.6,0.9
	c-0.1,0.3-0.3,0.5-0.8,0.6c0,0.3-0.3,0.8-0.6,0.9c0,0.7-0.4,1.1-1.1,1.4c0,0.4-0.6,0.9-1.1,1.2c-0.1,0.3-0.2,0.5-0.4,0.7
	c-0.2,0.9-0.7,1.4-1.1,2c-0.1,0.1-0.3,0.4-0.6,0.5c0,0.1,0,0.3-0.2,0.5c-0.8,1.3-1.7,2.7-2.7,4.1c-0.1,0-0.3,0.3-0.4,0.4l0,0.1
	l-0.1,0c0-0.1,0.1-0.1,0.1-0.1c0.1-0.3,0.2-0.5,0.2-0.8l0.6-1c-0.1,0-0.1,0-0.1-0.1l0.1,0.1c0-0.1,0.1-0.3,0.3-0.5l0-0.1l0.1,0
	c0.1-0.1,0.1-0.4,0.4-0.5l-0.1,0l-0.1-0.1c0.1,0,0.1,0.1,0.3,0.1c0-0.3,0-0.4,0.2-0.5l-0.1-0.1l0.3,0l0.7-1c0,0-0.1-0.1-0.1-0.3
	c0,0,0.1,0,0.1-0.1c0.1,0,0.3-0.3,0.4-0.4c0.1-0.1,0.1-0.4,0.3-0.7l0.4,0c0.1,0,0.3-0.1,0.3-0.4l0.3-0.7c0,0,0-0.1-0.1-0.1l0.1-0.1
	c0-0.3,0.2-0.5,0.4-0.7l0.1-0.1c0,0,0,0.1,0.1,0.1c0.1-0.1,0.1-0.1,0.3-0.1l0-0.5c0.3-0.1,0.4-0.1,0.4-0.3l0-0.3c0,0,0-0.1,0.1-0.1
	c0,0,0.1,0.1,0.3,0.1l0.4,0l0-0.5c0-0.3,0.2-0.5,0.3-0.8l-0.1-0.1l0.1,0c0,0,0.1-0.1,0.3-0.1c0.1,0,0.1,0.1,0.3,0.1l0.3,0l0-0.9
	l0.1-0.1l0,0.1l0.4,0c0-0.1,0-0.3,0.1-0.4c0-0.3,0.4-0.3,0.7-0.2l0-0.7L197.5,232.2l0-0.7c0,0-0.1-0.1-0.1-0.3l0.1,0
	c0,0,0-0.1,0.1-0.1c0,0,0.1,0.1,0.3,0.1l0.3,0c0-0.4,0.2-0.7,0.7-0.8c0,0.4-0.2,0.7-0.7,0.8C198.1,231.7,198.1,232.1,197.5,232.2z
	 M198.6,232.5c0.1-0.3,0.3-0.7,0.7-0.8C199.3,232.1,199,232.4,198.6,232.5z M199.5,230.2c0-0.5,0-0.8,0.4-0.9
	C199.9,229.7,199.6,230,199.5,230.2z M199.8,230.9c-0.1,0-0.1,0.1-0.3,0.1c0.1,0,0.1-0.1,0.3-0.3c0.1-0.1,0.4-0.3,0.4-0.3
	C200.2,230.7,200.1,230.7,199.8,230.9z M201.5,229.4c-0.1,0.1-0.4,0.1-0.4,0.3c-0.1,0.3-0.3,0.4-0.6,0.5l0.6-0.5l0-0.1
	C201.1,229.5,201.2,229.4,201.5,229.4c0-0.1,0.1-0.1,0.3-0.3l0.1,0C201.6,229.3,201.5,229.4,201.5,229.4z M201.8,227.8
	c-0.3,0.5-0.7,0.9-1.4,1.3C200.6,228.4,201.1,227.9,201.8,227.8c0-0.1,0-0.1,0.1-0.3L201.8,227.8z M203.2,227.8
	c-0.1,0.1-0.1,0.1-0.4,0.1c-0.1,0.4-0.3,0.8-0.7,0.8c0-0.3,0.2-0.7,0.7-0.8c0.1,0,0.3,0,0.3-0.3c0,0,0.1,0,0.1-0.1L203.2,227.8z
	 M203.3,226.5c0,0-0.1,0.1-0.1,0.3c-0.1,0-0.1,0.1-0.4,0.3c0.1-0.3,0.3-0.3,0.3-0.3c0.1-0.1,0.3-0.3,0.3-0.4L203.3,226.5z
	 M219.2,243.8c0,0.1-0.1,0.2-0.1,0.3c-0.1,0.1-0.2,0.2-0.3,0.2c0,0,0,0,0-0.1C218.8,244.1,219,244,219.2,243.8z M218.8,245.8v-0.2
	l0.3-0.2v0.2C219,245.6,218.9,245.7,218.8,245.8z M220,242.5c0.2-0.2,0.4-0.4,0.6-0.7c0,0.3-0.1,0.7-0.1,1c0,0,0,0,0,0
	c-0.1,0.2-0.4,0.4-0.6,0.5C219.9,243,220,242.7,220,242.5z M229.3,223.5l0.4,0.1c0,0.1,0,0.1-0.3,0.3c-1.3,1.9-2.3,3.6-3.3,5.7v0.1
	c-0.1,0-0.1,0-0.1-0.1v-0.1c0.7-1.9,1.6-3.6,2.8-5.2C229.1,224.1,229.2,223.8,229.3,223.5z M227.7,223.3l0.3-0.3
	c0,0.1,0.1,0.1,0.1,0.1c0,0.1-0.1,0.4-0.3,0.5c-1.2,1.7-1.9,3.5-3.1,5.3c-0.9,1.9-2,4.1-2.4,6.1c-0.6,1.6-1,3.1-1.4,4.6
	c-0.2,0.3-0.5,0.6-0.7,0.9c0.1-0.3,0.1-0.7,0.2-1.1c0.4-1.1,0.8-2.1,0.9-3.2c1.1-3.6,2.4-7.2,4.5-10.6
	C226.4,225,227.1,223.9,227.7,223.3z M219.6,240.3c0.1-0.9,0.1-1.6,0.5-2.4c0.9-3.6,2-7.2,4.4-10.7c0-0.4,0.3-0.7,0.5-1.1
	c0-0.1,0.1-0.1,0.1-0.3c0-0.4,0.4-0.8,0.9-1.1c0,0.4-0.7,0.8-0.9,1.1v0.1c0,0.3-0.1,0.5-0.1,0.8c-1.2,1.6-2.3,3.6-2.7,5.2
	c-0.8,1.9-1.5,3.6-1.9,5.5c-0.4,1.3-0.7,2.8-1.1,4v0.2c-0.1,0.1-0.1,0.2-0.2,0.2c0,0,0,0,0,0C219.3,241.4,219.4,240.8,219.6,240.3z
	 M215,248.3c-0.1,0.1-0.3,0.3-0.3,0.4C214.7,248.6,214.7,248.4,215,248.3z M215,249.9c0.1,0,0.3-0.1,0.3-0.1
	C215.2,249.9,215.2,249.9,215,249.9z M215.4,247.8c0.3-0.4,0.5-0.7,0.8-1.1c0,0,0,0.1,0.1,0.2C216.1,247.1,215.9,247.4,215.4,247.8z
	 M219.6,247.1l-0.1-0.1v-0.5c0-0.2,0.1-0.4,0.1-0.5c0.1-0.2,0.3-0.3,0.4-0.5c-0.1,0.5-0.2,1.1-0.4,1.5V247.1z M233.9,247.3
	c0.1-0.1,0-0.4,0.3-0.5c0-0.1,0-0.1,0.1-0.3c0-0.1,0-0.4,0.3-0.5v-0.4c0-0.1,0.1-0.3,0.3-0.4v-0.4c0-0.1,0-0.3,0.1-0.4
	c0-0.3,0.1-0.4,0.1-0.8h0.1v0.1c0,0.3-0.1,0.4-0.3,0.7v0.5c0,0.1-0.1,0.1-0.1,0.3v0.5c-0.1,0.1-0.3,0.1-0.3,0.3c0,0.3,0,0.5-0.4,0.8
	C234.1,246.9,234.1,247.2,233.9,247.3c0,0.5-0.1,1.1-0.7,1.3C233.2,248.3,233.5,247.9,233.9,247.3z M233.2,248.8
	c0,0.3,0,0.3-0.1,0.4C233.1,249.1,233.1,248.8,233.2,248.8z M236.1,247.2c-0.5,1.6-1.2,3.2-2,4.7c-0.3,0.4-0.3,0.5-0.5,0.8
	c0,0.1,0,0-0.1,0c0.7-1.6,1.3-2.9,1.7-4.1l0.8-1.7h0.1V247.2z M236.4,242.5c0,0.3,0,0.4-0.1,0.7c-0.9,2.7-1.7,5.6-3.5,8
	c-0.1,0.5-0.3,0.8-0.8,1.2l0.5-1.2c1.2-1.9,2-4,2.8-6c0.1-0.8,0.4-1.9,0.8-2.7l0.3-0.1V242.5z M260.2,242.5c0,0.3-0.3,0.5-0.5,0.9
	c-0.1,0.4-0.3,0.7-0.5,0.9c-0.3,0.7-0.7,1.1-1.2,1.3l-0.8,1.5c-0.3,0.7-0.8,1.5-1.5,2.1c-0.3,0.5-1.1,1.5-1.5,2
	c-0.3,0.3-0.3,0.5-0.5,0.7c0,0-0.1,0-0.3-0.1c0.3-0.4,0.5-0.7,0.7-1.1l2.9-3.7c0.1-0.5,0.3-0.9,0.7-1.5c0.1-0.4,0.8-0.8,1.3-1.3
	c0-0.4,0.3-0.7,0.5-0.9c0-0.4,0.4-0.9,0.7-0.9V242.5z M260.5,242.1c0-0.3,0.3-0.5,0.5-0.8C261,241.7,260.9,241.9,260.5,242.1z
	 M261.1,241.2c0.1-0.4,0.3-0.7,0.7-0.9C261.8,240.7,261.4,241.1,261.1,241.2z M261.9,240c0.1-0.1,0.1-0.3,0.1-0.4v-0.1
	c0,0.1,0.1,0.1,0.1,0.3S262.1,239.9,261.9,240z M262.9,236.8c-0.5,1.1-1.1,2.1-1.7,2.9c-0.1,0.4-0.4,0.9-0.8,1.5
	c-1.7,2.1-3.3,4.4-4.9,6.5c-0.4,0.9-1.2,1.6-1.9,2.1c0-0.3,0.1-0.5,0.4-0.8c0.5-0.9,1.3-1.7,1.9-2.5c1.5-1.9,2.7-3.7,3.9-5.5
	l0.5-0.5l-0.1-0.3v-0.1h0.1c0.1,0,0.1,0,0.1-0.1h0.3c0.3-0.1,0.4-0.3,0.4-0.4v-0.4c-0.1-0.1-0.1-0.1-0.1-0.3h0.1
	c0-0.1,0-0.1,0.1-0.3s0.1-0.1,0.3-0.1c0.3-0.1,0.3-0.3,0.3-0.5l-0.3-0.1h0.3c0-0.1,0-0.3,0.1-0.3l0.1-0.1l0.1,0.1
	c0.1-0.3,0.1-0.7,0.1-0.8l0.1-0.1l0.5-0.4v-0.1l0.1,0.1c0,0.1,0.1,0.1,0.1,0.3S263,236.8,262.9,236.8z M275.3,256.4
	c0-0.3,0.1-0.5,0.4-0.7c0-0.4,0.1-0.7,0.4-0.8c0.4-0.9,0.9-2,1.5-2.7V252c0-0.3,0.3-0.5,0.5-0.8h0.1c0.1-0.1,0.1,0,0.1,0
	c-0.1,0.5-0.1,0.8-0.8,1.1c0,0.9-0.5,1.9-1.3,2.8c0,0.3-0.1,0.5-0.5,0.7c0,0.4,0,0.7-0.4,0.9V256.4z M274.8,257.4
	c0-0.3,0.1-0.4,0.4-0.5c0,0.4-0.1,0.7-0.4,0.8V257.4z M278.7,255.9v0.3c0,0.1,0,0.3-0.1,0.5c-1.1,2-2.3,3.6-3.9,5.3l-0.3,0.4v-0.7
	c1.2-1.7,2.5-3.2,3.3-4.9C278.1,256.6,278.4,256.2,278.7,255.9c0.1-0.5,0.3-0.9,0.5-1.2C279.1,255.2,278.9,255.6,278.7,255.9z
	 M279.7,249.5c-0.9,3.1-2.3,6.1-4.4,9.2c-0.5,0.3-0.9,1.1-1.5,1.9l-0.4,0.3c0.1-0.3,0.1-0.7,0.4-1.1c1.5-2,3.2-4.5,4.4-7.1
	c0.5-1.2,0.7-2.3,1.2-3.3c0,0,0.3-0.1,0.5-0.1C279.7,249.3,279.7,249.3,279.7,249.5z"/>
<g>
	<path class="st4" d="M42.1,186.2l-1.1,1.1l-0.8-1.4l1.1-1.1l-1.3-2.2c-0.7-1.2-1-2.2-0.9-3.1c0-1,0.5-1.9,1.2-2.5
		c0.9-0.8,1.8-0.7,2.2-0.2c0.5,0.5,0.4,1.2-0.1,1.6c-0.4,0.4-1.1,0.4-1.5,0.1c-0.2,0.2-0.3,0.6-0.3,0.8c0,0.6,0.2,1.3,0.7,2.2l1.2,2
		l1.7-1.6l0.8,1.4l-1.7,1.6l3.8,6.6l-1.3,1.2L42.1,186.2z"/>
	<path class="st4" d="M47.6,179l2.7,4.9c0.2,0.3,0.3,0.5,0.5,0.7c0.5,0.6,1.2,0.6,1.8,0.1c0.9-0.8,0.9-2.2,0.1-3.8l-2.4-4.4l1.3-1.2
		l3.2,5.7c0.2,0.3,0.4,0.6,0.5,0.8c0.3,0.3,0.6,0.3,0.8,0.1c0.3-0.2,0.3-0.7-0.1-1.9l0.8-0.3c0.8,1.7,0.5,2.8-0.2,3.4
		c-0.8,0.7-1.8,0.6-2.5-0.2l-0.1-0.1c0.3,1.4,0.1,2.8-0.8,3.6c-0.9,0.9-2.3,0.9-3.3-0.1c-0.3-0.3-0.6-0.8-0.9-1.2l-1.8-3.4l-1.2,1.1
		l-0.8-1.4L47.6,179z"/>
	<path class="st4" d="M62.5,175.1c-0.2-0.2-0.4-0.5-0.6-0.8l-1.3-2.5c-0.2-0.3-0.3-0.6-0.5-0.8c-0.5-0.6-1.3-0.6-1.9,0
		c-0.8,0.8-0.9,2.1,0,3.8l2.4,4.4l-1.3,1.3l-3.7-6.7l-1.2,1.1l-0.8-1.4l2.3-2.2l1.1,1.9c-0.3-1.4-0.2-2.9,0.7-3.8
		c1-0.9,2.4-1,3.5,0.2c0.3,0.3,0.6,0.7,0.8,1.2l1.2,2.5c0.1,0.2,0.3,0.5,0.4,0.6c0.3,0.3,0.6,0.3,0.9,0.1c0.3-0.2,0.3-0.7-0.1-1.9
		l0.8-0.3c0.8,1.5,0.7,2.7-0.1,3.4C64.2,176,63.2,175.9,62.5,175.1z"/>
	<path class="st4" d="M68.3,162.1c-1.1-0.3-1.7-0.6-2.3-1.3c-1.3-1.4-1.2-3.7,0.3-5.1c1.4-1.3,3.2-1.1,4.2-0.1
		c1.2,1.3,0.9,3.2-0.1,5.4l1,0.1l2.1,0.2c-0.2-2.1-0.2-3.3,0.8-4.1c0.7-0.6,1.5-0.5,2,0c0.4,0.5,0.4,1.2-0.1,1.6
		c-0.3,0.3-0.8,0.4-1.2,0.2c-0.2,0.4-0.1,1.3,0,2.5l3.1,0.3l-0.1,1.6l-3-0.4c0,1.6-0.3,3.3-1.6,4.6c-1.7,1.5-3.6,1.5-4.9,0.1
		C67,166.1,67.4,163.9,68.3,162.1z M73.5,162.9l-2.5-0.3c-0.5-0.1-1-0.1-1.4-0.2c-0.7,1.8-0.8,3,0.1,3.9c0.8,0.8,1.8,0.9,2.7,0
		C73.4,165.5,73.5,164.2,73.5,162.9z M69,160.7c0.8-1.7,1-3,0.2-3.9c-0.5-0.5-1.3-0.6-2,0c-0.9,0.8-0.7,2.1,0,2.9
		C67.7,160.1,68.1,160.5,69,160.7z"/>
	<path class="st4" d="M82.3,153.6l0.2,0.2c0.9,1,2.3,0.9,3.5-0.2c0.7-0.7,1.2-1.4,1.6-2.6l0.9,1.5c-0.4,1-0.8,1.6-1.8,2.5
		c-1.6,1.5-3.9,1.8-5.6,0c-2.1-2.2-2.1-5.6-0.2-7.4c1.6-1.5,3.5-1.6,4.9,0c0.4,0.4,0.7,0.9,1,1.6L82.3,153.6z M81.6,152.4l3.4-3.2
		c-0.1-0.2-0.3-0.5-0.4-0.6c-0.6-0.7-1.6-0.8-2.5,0.1C81.1,149.6,81,151.1,81.6,152.4z"/>
	<path class="st4" d="M94.3,145.5c-0.2-0.2-0.4-0.5-0.6-0.8l-1.3-2.5c-0.2-0.3-0.3-0.6-0.5-0.8c-0.5-0.6-1.3-0.6-1.9,0
		c-0.8,0.8-0.9,2.1,0,3.8l2.4,4.4l-1.3,1.3l-3.7-6.7l-1.2,1.1l-0.8-1.4l2.3-2.2l1.1,1.9c-0.3-1.4-0.2-2.9,0.7-3.8
		c1-0.9,2.4-1,3.5,0.2c0.3,0.3,0.6,0.7,0.8,1.2l1.2,2.5c0.1,0.2,0.3,0.5,0.4,0.6c0.3,0.3,0.6,0.3,0.9,0.1c0.3-0.2,0.3-0.7-0.1-1.9
		l0.8-0.3c0.8,1.5,0.7,2.7-0.1,3.4C96,146.3,95,146.3,94.3,145.5z"/>
	<path class="st4" d="M101.6,145.2c-0.6,0-0.9-0.2-1.2-0.5c-0.5-0.5-0.5-1.2,0-1.7c0.5-0.4,1.2-0.4,1.6,0.1c0.1,0.1,0.2,0.3,0.3,0.5
		c0.3-0.1,0.8-0.3,1.3-0.8c0.6-0.6,0.9-1.2,0.9-1.9c0-0.7-0.2-1.4-0.7-2.3l-0.9-1.5c0.2,1.3-0.1,2.6-1,3.4c-1.5,1.4-3.4,1.2-4.9-0.4
		c-2-2.1-2.2-5.4-0.2-7.2c1.1-1.1,2.5-0.9,3.4-0.4l-0.9-1.8l1.2-1.2l4.7,8.2c0.6,1.1,1,2,0.9,2.9c-0.1,1.1-0.6,2.1-1.6,3.1
		C103.7,144.7,102.3,145.3,101.6,145.2z M101.1,134.1c-0.9-1-2.1-1-3-0.1c-1.3,1.2-1.1,3.3,0.3,4.8c0.9,1,2.1,1,3,0.1
		C102.6,137.7,102.4,135.5,101.1,134.1z"/>
	<path class="st4" d="M105.3,132.8c-2.1-2.2-2.4-5.6-0.4-7.4c1-0.9,2.4-0.9,3.4-0.3l-0.9-1.9l1.2-1.2l3.2,5.8
		c0.2,0.3,0.4,0.6,0.5,0.8c0.3,0.3,0.6,0.3,0.8,0.1c0.2-0.2,0.3-0.7-0.1-1.9l0.8-0.3c0.8,1.7,0.6,2.8-0.2,3.4
		c-0.8,0.7-1.8,0.6-2.5-0.1l-0.1-0.1c0.2,1.3,0,2.7-1,3.6C108.7,134.6,106.8,134.4,105.3,132.8z M109.1,126.7c-0.9-1-2-1.2-3-0.2
		c-1.3,1.2-0.9,3.5,0.4,5c0.9,1,2,1.2,2.9,0.3C110.8,130.5,110.4,128.1,109.1,126.7z"/>
	<path class="st4" d="M118.3,129.6c-0.6,0-0.9-0.2-1.2-0.5c-0.5-0.5-0.5-1.2,0-1.7c0.5-0.4,1.2-0.4,1.6,0.1c0.1,0.1,0.2,0.3,0.3,0.5
		c0.3-0.1,0.8-0.3,1.3-0.8c0.6-0.6,0.9-1.2,0.9-1.9c0-0.7-0.2-1.4-0.7-2.3l-0.9-1.5c0.2,1.3-0.1,2.6-1,3.4c-1.5,1.4-3.4,1.2-4.9-0.4
		c-2-2.1-2.2-5.4-0.2-7.2c1.1-1.1,2.5-0.9,3.4-0.4l-0.9-1.8l1.2-1.2l4.7,8.2c0.6,1.1,1,2,0.9,2.9c-0.1,1.1-0.6,2.1-1.6,3.1
		C120.4,129.1,119.1,129.7,118.3,129.6z M117.8,118.4c-0.9-1-2.1-1-3-0.1c-1.3,1.2-1.1,3.3,0.3,4.8c0.9,1,2.1,1,3,0.1
		C119.4,122.1,119.1,119.9,117.8,118.4z"/>
	<path class="st4" d="M123.6,118.1c-0.2-0.2-0.4-0.5-0.6-0.8l-2.4-4.4l-1.2,1.2l-0.8-1.4l2.6-2.4l3.1,5.8c0.2,0.3,0.4,0.6,0.5,0.8
		c0.3,0.3,0.6,0.3,0.8,0.1c0.3-0.3,0.4-0.8-0.1-1.9l0.8-0.3c0.8,1.7,0.6,2.7-0.2,3.5C125.3,119,124.4,118.9,123.6,118.1z M118,109.6
		c-0.5-0.5-0.4-1.3,0.1-1.7c0.5-0.4,1.3-0.4,1.7,0.1c0.5,0.5,0.4,1.3-0.1,1.7C119.3,110.1,118.5,110.1,118,109.6z"/>
	<path class="st4" d="M132.3,110.1c-0.2-0.2-0.4-0.5-0.6-0.8l-1.3-2.5c-0.2-0.3-0.3-0.6-0.5-0.8c-0.5-0.6-1.3-0.6-1.9,0
		c-0.8,0.8-0.9,2.1,0,3.8l2.4,4.4l-1.3,1.3l-3.7-6.7l-1.2,1.1l-0.8-1.4l2.3-2.2l1.1,1.9c-0.3-1.4-0.2-2.9,0.7-3.8
		c1-0.9,2.4-1,3.5,0.2c0.3,0.3,0.6,0.7,0.8,1.2l1.2,2.5c0.1,0.2,0.3,0.5,0.4,0.6c0.3,0.3,0.6,0.3,0.9,0.1c0.3-0.2,0.3-0.7-0.1-1.9
		l0.8-0.3c0.8,1.5,0.7,2.7-0.1,3.4C134,110.9,133,110.9,132.3,110.1z"/>
	<path class="st4" d="M139.6,109.8c-0.6,0-0.9-0.2-1.2-0.5c-0.5-0.5-0.5-1.2,0-1.7c0.5-0.4,1.2-0.4,1.6,0.1c0.1,0.1,0.2,0.3,0.3,0.5
		c0.3-0.1,0.8-0.3,1.3-0.8c0.6-0.6,0.9-1.2,0.9-1.9c0-0.7-0.2-1.4-0.7-2.3l-0.9-1.5c0.2,1.3-0.1,2.6-1,3.4c-1.5,1.4-3.4,1.2-4.9-0.4
		c-2-2.1-2.2-5.4-0.2-7.2c1.1-1.1,2.5-0.9,3.4-0.4l-0.9-1.8l1.2-1.2l4.7,8.2c0.6,1.1,1,2,0.9,2.9c-0.1,1.1-0.6,2.1-1.6,3.1
		C141.7,109.3,140.3,109.9,139.6,109.8z M139.1,98.6c-0.9-1-2.1-1-3-0.1c-1.3,1.2-1.1,3.3,0.3,4.8c0.9,1,2.1,1,3,0.1
		C140.6,102.3,140.4,100.1,139.1,98.6z"/>
	<path class="st4" d="M59.8,208.5l1.1-1.1l-5.3-9.2l-1.3,1.2l-0.9-1.5l7.3-6.8l1.8,3.2l-1.3,1.2l-1-1.7l-3.2,3l2.3,4l3-2.8l0.8,1.5
		l-3,2.8l2.1,3.8l1.4-1.3l0.9,1.5l-4,3.7L59.8,208.5z"/>
	<path class="st4" d="M67.4,199c-2.1-2.2-2.4-5.6-0.4-7.4c1-0.9,2.4-0.9,3.4-0.3l-0.9-1.9l1.2-1.2l3.2,5.8c0.2,0.3,0.4,0.6,0.5,0.8
		c0.3,0.3,0.6,0.3,0.8,0.1c0.2-0.2,0.3-0.7-0.1-1.9l0.8-0.3c0.8,1.7,0.6,2.8-0.2,3.4c-0.8,0.7-1.8,0.6-2.5-0.1l-0.1-0.1
		c0.2,1.3,0,2.7-1,3.6C70.8,200.8,68.9,200.6,67.4,199z M71.2,192.8c-0.9-1-2-1.2-3-0.2c-1.3,1.2-0.9,3.5,0.4,5c0.9,1,2,1.2,2.9,0.3
		C72.9,196.6,72.5,194.3,71.2,192.8z"/>
	<path class="st4" d="M77.9,192.6c-0.5,0-0.9-0.2-1.2-0.5c-0.5-0.5-0.5-1.2,0-1.6c0.4-0.4,1-0.3,1.4,0c0.1,0.2,0.2,0.4,0.2,0.6
		c0.1,0,0.2,0,0.4-0.1c0.4-0.1,1-0.4,1.5-0.9c0.7-0.6,1-1.5,0.5-2c-0.5-0.5-1.4-0.2-2.5,0.1c-1.3,0.4-2.6,0.8-3.6-0.2
		c-1-1.1-0.9-2.8,0.7-4.3c0.9-0.8,1.9-1.3,2.8-1.2c0.5,0,0.9,0.2,1.2,0.5c0.5,0.5,0.4,1.2,0,1.5c-0.4,0.4-1.1,0.4-1.4,0
		c-0.1-0.1-0.2-0.3-0.3-0.6c-0.1,0-0.2,0-0.3,0.1c-0.3,0.1-0.7,0.4-1,0.7c-0.7,0.6-0.9,1.4-0.5,1.9c0.5,0.5,1.4,0.2,2.5-0.2
		c1.3-0.4,2.6-0.7,3.6,0.3c1.2,1.3,0.8,3-0.7,4.4C80,192.2,78.8,192.6,77.9,192.6z"/>
	<path class="st4" d="M77.7,175.3l-1.2,1.2l-0.8-1.4l2.5-2.3l4.1,7.1c-0.2-1.2,0-2.6,0.8-3.4c1-0.9,2.5-1,3.5,0.2
		c0.3,0.3,0.6,0.7,0.8,1.2l1.3,2.4c0.1,0.2,0.3,0.5,0.4,0.6c0.3,0.3,0.6,0.3,0.9,0.1c0.3-0.3,0.3-0.7-0.1-1.9l0.8-0.3
		c0.8,1.5,0.7,2.6-0.1,3.4c-0.9,0.8-1.9,0.8-2.6,0c-0.2-0.2-0.4-0.5-0.6-0.8l-1.3-2.5c-0.2-0.3-0.3-0.5-0.5-0.8
		c-0.5-0.6-1.3-0.6-1.9,0c-0.8,0.8-1,2.2,0,3.8l2.5,4.3l-1.3,1.2L77.7,175.3z"/>
	<path class="st4" d="M92.4,178.1c-0.2-0.2-0.4-0.5-0.6-0.8l-2.4-4.4l-1.2,1.2l-0.8-1.4l2.6-2.4l3.1,5.8c0.2,0.3,0.4,0.6,0.5,0.8
		c0.3,0.3,0.6,0.3,0.8,0.1c0.3-0.3,0.4-0.8-0.1-1.9l0.8-0.3c0.8,1.7,0.6,2.7-0.2,3.5C94.1,179,93.1,178.9,92.4,178.1z M86.8,169.6
		c-0.5-0.5-0.4-1.3,0.1-1.7c0.5-0.4,1.3-0.4,1.7,0.1c0.5,0.5,0.4,1.3-0.1,1.7C88,170.1,87.3,170,86.8,169.6z"/>
	<path class="st4" d="M95.2,172.6c-1.9-2-2.1-5.4,0.1-7.4c1.9-1.8,4.2-1.4,5.7,0.2c1.9,2,2.1,5.3-0.1,7.4
		C99,174.5,96.6,174.1,95.2,172.6z M99.6,166.6c-1.1-1.1-2.4-1.1-3.3-0.2c-1.3,1.2-1.2,3.4,0.3,4.9c1.1,1.1,2.4,1.1,3.4,0.2
		C101.2,170.3,101,168.1,99.6,166.6z"/>
	<path class="st4" d="M108.9,162.7c-0.2-0.2-0.4-0.5-0.6-0.8l-1.3-2.5c-0.2-0.3-0.3-0.6-0.5-0.8c-0.5-0.6-1.3-0.6-1.9,0
		c-0.8,0.8-0.9,2.1,0,3.8l2.4,4.4l-1.3,1.3l-3.7-6.7l-1.2,1.1L100,161l2.3-2.2l1.1,1.9c-0.3-1.4-0.2-2.9,0.7-3.8
		c1-0.9,2.4-1,3.5,0.2c0.3,0.3,0.6,0.7,0.8,1.2l1.2,2.5c0.1,0.2,0.3,0.5,0.4,0.6c0.3,0.3,0.6,0.3,0.9,0.1c0.3-0.2,0.3-0.7-0.1-1.9
		l0.8-0.3c0.8,1.5,0.7,2.7-0.1,3.4C110.6,163.6,109.6,163.5,108.9,162.7z"/>
	<path class="st4" d="M115.8,156.2l1.1-1.1l-5.3-9.2l-1.3,1.2l-0.9-1.5l7.4-6.9l1.8,3.2l-1.3,1.2l-1-1.7l-3.4,3.1l2.2,3.8l3.1-2.9
		l0.8,1.4l-3.1,2.9l2.3,4l3.4-3.2l-1-1.7l1.3-1.2l1.8,3.2l-7.2,6.7L115.8,156.2z"/>
	<path class="st4" d="M124.8,148.7c-0.4-0.4-0.4-1.1,0.1-1.6c0.4-0.3,0.8-0.3,1.2-0.2c0.2-0.3,0.2-1,0.1-2.1l-0.2-1.7l-2.9-1.4
		l-1.3,1.2l-0.8-1.4l1.9-1.7l2.9,1.5l-0.2-1.4c-0.3-1.6-0.1-2.8,0.6-3.4c0.7-0.6,1.5-0.6,1.9-0.1c0.4,0.4,0.4,1.1-0.1,1.6
		c-0.4,0.3-0.8,0.4-1.1,0.2c-0.2,0.3-0.2,1,0,1.9l0.2,1.6l2.4,1.1c1,0.5,1.2,0.4,1.4,0.3c0.2-0.2,0.2-0.6-0.3-1.7l0.8-0.4
		c0.9,1.6,0.8,2.6,0.1,3.2c-0.6,0.6-1.4,0.6-2.6,0.1l-1.7-0.8l0.3,1.6c0.3,1.7,0.1,2.7-0.7,3.4C126.1,149.2,125.2,149.2,124.8,148.7
		z"/>
	<path class="st4" d="M134.6,144.6l1-0.9l-5.1-8.9l-1.2,1.2l-0.8-1.4l2.4-2.2l1,1.7c-0.2-1.3-0.1-2.8,0.9-3.8
		c1.5-1.4,3.4-1.1,4.8,0.4c2.1,2.3,2.3,5.6,0.4,7.4c-1,0.9-2.3,0.9-3.4,0.4l2.3,3.9l1.3-1.2l0.7,1.4l-3.6,3.3L134.6,144.6z
		 M136.4,132.1c-0.9-1-2.1-1.2-3-0.3c-1.3,1.2-1.1,3.7,0.3,5.1c0.9,1,2,1.1,3.1,0.1C138,135.9,137.8,133.6,136.4,132.1z"/>
	<path class="st4" d="M141.2,129.5l0.2,0.2c0.9,1,2.3,0.9,3.5-0.2c0.7-0.7,1.2-1.4,1.6-2.6l0.9,1.5c-0.4,1-0.8,1.6-1.8,2.5
		c-1.6,1.5-3.9,1.8-5.6,0c-2.1-2.2-2.1-5.6-0.2-7.4c1.6-1.5,3.5-1.6,4.9,0c0.4,0.4,0.7,0.9,1,1.6L141.2,129.5z M140.5,128.4l3.4-3.2
		c-0.1-0.2-0.3-0.5-0.4-0.6c-0.6-0.7-1.6-0.8-2.5,0.1C140,125.5,139.9,127,140.5,128.4z"/>
	<path class="st4" d="M146.3,120l-1.2,1.1l-0.8-1.4l2.3-2.2l1.3,2.2c-0.4-2-0.2-3.4,0.5-4.1c0.5-0.5,1.3-0.5,1.8,0
		c0.5,0.5,0.4,1.3,0,1.8c-0.5,0.4-1.1,0.4-1.5,0.2c-0.3,0.7-0.3,2.4,0.6,4.2l2,3.6l-1.3,1.3L146.3,120z"/>
	<path class="st4" d="M155.3,119.4c-0.2-0.2-0.4-0.5-0.6-0.8l-2.4-4.4l-1.2,1.2l-0.8-1.4l2.6-2.4l3.1,5.8c0.2,0.3,0.4,0.6,0.5,0.8
		c0.3,0.3,0.6,0.3,0.8,0.1c0.3-0.3,0.4-0.8-0.1-1.9l0.8-0.3c0.8,1.7,0.6,2.7-0.2,3.5C157,120.3,156.1,120.2,155.3,119.4z
		 M149.8,110.9c-0.5-0.5-0.4-1.3,0.1-1.7c0.5-0.4,1.3-0.4,1.7,0.1c0.5,0.5,0.4,1.3-0.1,1.7C151,111.4,150.2,111.4,149.8,110.9z"/>
	<path class="st4" d="M159.3,112.6l0.2,0.2c0.9,1,2.3,0.9,3.5-0.2c0.7-0.7,1.2-1.4,1.6-2.6l0.9,1.5c-0.4,1-0.8,1.6-1.8,2.5
		c-1.6,1.5-3.9,1.8-5.6,0c-2.1-2.2-2.1-5.6-0.2-7.4c1.6-1.5,3.5-1.6,4.9,0c0.4,0.4,0.7,0.9,1,1.6L159.3,112.6z M158.6,111.5l3.4-3.2
		c-0.1-0.2-0.3-0.5-0.4-0.6c-0.6-0.7-1.6-0.8-2.5,0.1C158.2,108.6,158,110.1,158.6,111.5z"/>
	<path class="st4" d="M171.3,104.5c-0.2-0.2-0.4-0.5-0.6-0.8l-1.3-2.5c-0.2-0.3-0.3-0.6-0.5-0.8c-0.5-0.6-1.3-0.6-1.9,0
		c-0.8,0.8-0.9,2.1,0,3.8l2.4,4.4l-1.3,1.3l-3.7-6.7l-1.2,1.1l-0.8-1.4l2.3-2.2l1.1,1.9c-0.3-1.4-0.2-2.9,0.7-3.8
		c1-0.9,2.4-1,3.5,0.2c0.3,0.3,0.6,0.7,0.8,1.2l1.2,2.5c0.1,0.2,0.3,0.5,0.4,0.6c0.3,0.3,0.6,0.3,0.9,0.1c0.3-0.2,0.3-0.7-0.1-1.9
		l0.8-0.3c0.8,1.5,0.7,2.7-0.1,3.4C173.1,105.4,172,105.3,171.3,104.5z"/>
	<path class="st4" d="M173.9,99.2c-1.9-2.1-1.9-5.5,0.2-7.5c1.4-1.3,3.2-1.4,4.1-0.4c0.5,0.6,0.6,1.4,0.1,1.9
		c-0.4,0.4-1.1,0.4-1.5-0.1c-0.2-0.2-0.3-0.5-0.3-0.8c-0.4,0-0.9,0.2-1.4,0.6c-1.2,1.1-1.5,3.3,0.1,5c1.1,1.1,2.5,1.2,3.6,0.1
		c0.8-0.7,1.3-1.7,1.4-2.9l1.1,1.2c-0.2,1.1-0.8,2.1-1.6,2.9C178,100.8,175.6,101,173.9,99.2z"/>
	<path class="st4" d="M182.4,91.1l0.2,0.2c0.9,1,2.3,0.9,3.5-0.2c0.7-0.7,1.2-1.4,1.6-2.6l0.9,1.5c-0.4,1-0.8,1.6-1.8,2.5
		c-1.6,1.5-3.9,1.8-5.6,0c-2.1-2.2-2.1-5.6-0.2-7.4c1.6-1.5,3.5-1.6,4.9,0c0.4,0.4,0.7,0.9,1,1.6L182.4,91.1z M181.7,90l3.4-3.2
		c-0.1-0.2-0.3-0.5-0.4-0.6c-0.6-0.7-1.6-0.8-2.5,0.1C181.2,87.2,181.1,88.6,181.7,90z"/>
</g>
<g>
	<path class="st5" d="M304,108c1.9-2,5.2-2.5,7.4-0.5c1.9,1.7,1.7,4.1,0.3,5.7c-1.8,2-5.2,2.5-7.3,0.5
		C302.4,111.9,302.6,109.6,304,108z M310.3,111.9c1-1.1,0.9-2.5,0-3.3c-1.3-1.2-3.5-0.9-4.9,0.7c-1.1,1.2-0.9,2.5,0,3.4
		C306.7,113.8,308.9,113.5,310.3,111.9z"/>
	<path class="st5" d="M317.1,115.1l-4,2.6c-0.3,0.2-0.5,0.4-0.6,0.5c-0.3,0.4-0.3,0.8,0,1c0.4,0.3,0.8,0.5,1.9,0.6l-0.1,1.1
		c-1.5,0-2.5-0.5-3.1-1.1c-0.8-0.7-1-1.8-0.2-2.7c0.2-0.2,0.5-0.4,0.8-0.7l4-2.6l-1.2-1.1l1.3-0.9l1.2,1.1l1.8-1.2l1.9,0.8l-2.4,1.5
		l2,1.9l-1.3,0.9L317.1,115.1z"/>
	<path class="st5" d="M326.1,114.8l-1.2-1.1l1.3-0.9l2.5,2.3l-6.8,4.6c1.2-0.3,2.5-0.2,3.4,0.6c1,0.9,1.2,2.4,0.1,3.5
		c-0.3,0.3-0.7,0.6-1.2,0.9l-2.3,1.5c-0.2,0.2-0.4,0.3-0.6,0.5c-0.3,0.3-0.3,0.6-0.1,0.9c0.3,0.3,0.8,0.3,1.8-0.3l0.4,0.8
		c-1.5,0.9-2.6,0.9-3.4,0.1c-0.9-0.8-0.9-1.8-0.2-2.6c0.2-0.2,0.5-0.4,0.8-0.6l2.4-1.5c0.3-0.2,0.5-0.4,0.7-0.6
		c0.5-0.6,0.5-1.3-0.1-1.9c-0.8-0.7-2.2-0.8-3.8,0.3l-4.1,2.8l-1.3-1.2L326.1,114.8z"/>
	<path class="st5" d="M326.9,128.8l-0.2,0.2c-0.9,1-0.7,2.4,0.5,3.5c0.7,0.6,1.5,1.1,2.7,1.4l-1.4,1c-1-0.3-1.7-0.7-2.6-1.6
		c-1.6-1.5-2.1-3.8-0.5-5.6c2.1-2.2,5.4-2.5,7.3-0.7c1.6,1.5,1.8,3.4,0.4,4.9c-0.4,0.4-0.9,0.8-1.5,1.2L326.9,128.8z M327.9,128.1
		l3.4,3.2c0.2-0.1,0.4-0.3,0.6-0.5c0.6-0.7,0.6-1.6-0.3-2.5C330.7,127.4,329.3,127.3,327.9,128.1z"/>
	<path class="st5" d="M336.8,133.2l-1.2-1.1l1.3-0.9l2.4,2.2l-2.1,1.5c2-0.6,3.4-0.5,4.1,0.1c0.5,0.5,0.6,1.3,0.1,1.8
		c-0.5,0.5-1.3,0.5-1.8,0.1c-0.5-0.4-0.5-1.1-0.3-1.5c-0.7-0.2-2.5-0.1-4.1,1l-3.5,2.3l-1.4-1.2L336.8,133.2z"/>
	<path class="st5" d="M337.3,142.4c0-0.5,0.1-0.9,0.4-1.3c0.5-0.5,1.1-0.5,1.6-0.1c0.4,0.4,0.4,1,0.1,1.4c-0.1,0.2-0.4,0.3-0.5,0.3
		c0,0.1,0,0.2,0.1,0.4c0.2,0.4,0.5,1,1,1.4c0.7,0.6,1.5,0.9,2,0.4c0.5-0.6,0.1-1.4-0.3-2.4c-0.5-1.3-1-2.5,0-3.6
		c1-1.1,2.7-1.1,4.4,0.4c0.9,0.8,1.4,1.8,1.4,2.7c0,0.5-0.1,0.9-0.4,1.2c-0.5,0.5-1.1,0.5-1.5,0.1c-0.4-0.4-0.4-1-0.1-1.4
		c0.1-0.1,0.3-0.2,0.5-0.3c0-0.1,0-0.2-0.1-0.3c-0.1-0.3-0.4-0.7-0.7-1c-0.7-0.6-1.5-0.8-1.9-0.4c-0.5,0.5-0.1,1.4,0.4,2.5
		c0.5,1.2,0.9,2.5,0,3.6c-1.2,1.3-2.9,1.1-4.5-0.4C337.9,144.5,337.3,143.4,337.3,142.4z"/>
	<path class="st5" d="M354.1,149l-4,2.6c-0.3,0.2-0.5,0.4-0.6,0.5c-0.3,0.4-0.3,0.8,0,1c0.4,0.3,0.8,0.5,1.9,0.6l-0.1,1.1
		c-1.6,0-2.5-0.5-3.1-1.1c-0.8-0.7-1-1.8-0.2-2.7c0.2-0.2,0.5-0.4,0.8-0.7l4-2.6l-1.2-1.1l1.3-0.9l1.2,1.1l1.8-1.2l1.9,0.8l-2.4,1.5
		l2,1.9l-1.3,0.9L354.1,149z"/>
	<path class="st5" d="M354.3,154.2c1.9-2,5.2-2.5,7.4-0.5c1.9,1.7,1.7,4.1,0.3,5.7c-1.8,2-5.2,2.5-7.3,0.5
		C352.7,158.1,352.8,155.7,354.3,154.2z M360.6,158.1c1-1.1,0.9-2.5,0-3.3c-1.3-1.2-3.5-0.9-4.9,0.7c-1.1,1.2-0.9,2.5,0,3.4
		C356.9,159.9,359.1,159.6,360.6,158.1z"/>
	<path class="st5" d="M374.2,159l-1.2-1.1l1.3-0.9l2.5,2.3l-6.7,4.6c1.2-0.3,2.6-0.1,3.5,0.7c1.5,1.4,1.4,3.3,0,4.9
		c-2.1,2.3-5.4,2.7-7.4,1c-1-0.9-1.2-2.3-0.6-3.4l-1.7,1l-1.3-1.2L374.2,159z M371.9,168.4c0.9-1,1-2.2,0.1-3.1
		c-1.3-1.2-3.7-0.8-5.1,0.7c-0.9,1-0.9,2.1,0.1,3.1C368.3,170.3,370.6,169.8,371.9,168.4z"/>
	<path class="st5" d="M374.9,172.9l-0.2,0.2c-0.9,1-0.7,2.4,0.5,3.5c0.7,0.6,1.5,1.1,2.7,1.4l-1.4,1c-1-0.3-1.7-0.7-2.6-1.6
		c-1.6-1.5-2.1-3.8-0.5-5.6c2.1-2.2,5.4-2.5,7.3-0.7c1.6,1.5,1.8,3.4,0.4,4.9c-0.4,0.4-0.9,0.8-1.5,1.2L374.9,172.9z M376,172.1
		l3.4,3.2c0.2-0.1,0.4-0.3,0.6-0.5c0.6-0.7,0.6-1.6-0.3-2.5C378.8,171.5,377.3,171.4,376,172.1z"/>
	<path class="st5" d="M283.1,128.1l1,0.9l8.5-5.8l-1.2-1.1l1.3-0.9l2.4,2.2l-1.7,1.1c1.3-0.3,2.8-0.3,3.8,0.6
		c1.5,1.4,1.4,3.3-0.1,4.9c-2.1,2.3-5.4,2.7-7.4,0.9c-1-0.9-1.1-2.2-0.7-3.3l-3.7,2.5l1.3,1.2l-1.3,0.8l-3.6-3.3L283.1,128.1z
		 M295.6,128.9c0.9-1,1-2.2,0.1-3.1c-1.3-1.2-3.7-0.8-5.1,0.7c-0.9,1-0.9,2.1,0.1,3.1C292,130.9,294.3,130.4,295.6,128.9z"/>
	<path class="st5" d="M297,132.7c2.1-2.3,5.4-2.8,7.4-1c1,0.9,1.1,2.3,0.5,3.4l1.8-1.1l1.3,1.2l-5.5,3.6c-0.3,0.2-0.6,0.4-0.7,0.6
		c-0.3,0.3-0.3,0.6,0,0.8c0.2,0.2,0.8,0.3,1.8-0.3l0.4,0.8c-1.6,1-2.7,0.8-3.4,0.1c-0.8-0.7-0.8-1.7,0-2.5l0.1-0.1
		c-1.3,0.3-2.7,0.2-3.7-0.7C295.5,136.2,295.5,134.3,297,132.7z M303.4,136c0.9-1,1-2.1,0-3c-1.3-1.2-3.5-0.7-4.9,0.8
		c-0.9,1-1,2.1-0.1,2.9C299.7,138,302.1,137.5,303.4,136z"/>
	<path class="st5" d="M309.8,139l-1.2-1.1l1.3-0.9l2.4,2.2l-2.1,1.5c2-0.6,3.4-0.5,4.1,0.1c0.5,0.5,0.6,1.3,0.1,1.8
		c-0.5,0.5-1.3,0.5-1.8,0.1c-0.5-0.4-0.5-1.1-0.3-1.5c-0.7-0.2-2.5-0.1-4.1,1l-3.5,2.3l-1.4-1.2L309.8,139z"/>
	<path class="st5" d="M317.3,145.9l-4,2.6c-0.3,0.2-0.5,0.4-0.6,0.5c-0.3,0.4-0.3,0.8,0,1c0.4,0.3,0.8,0.5,1.9,0.6l-0.1,1.1
		c-1.5,0-2.5-0.5-3.1-1.1c-0.8-0.7-1-1.8-0.2-2.7c0.2-0.2,0.5-0.4,0.8-0.7l4-2.6l-1.2-1.1l1.3-0.9l1.2,1.1l1.8-1.2l1.9,0.8l-2.4,1.5
		l2,1.9l-1.3,0.9L317.3,145.9z"/>
	<path class="st5" d="M320.7,153.9c1.9-2,5.2-2.5,7.4-0.5c1.9,1.7,1.7,4.1,0.3,5.7c-1.8,2-5.2,2.5-7.3,0.5
		C319.1,157.9,319.2,155.5,320.7,153.9z M327,157.9c1-1.1,0.9-2.5,0-3.3c-1.3-1.2-3.5-0.9-4.9,0.7c-1.1,1.2-0.9,2.5,0,3.4
		C323.3,159.7,325.5,159.4,327,157.9z"/>
	<path class="st5" d="M332.4,159.8l-1.2-1.1l1.3-0.9l1.1,1l2.1-1.4c1.2-0.8,2.1-1.1,3-1.2c1,0,1.9,0.3,2.6,1
		c0.9,0.8,0.9,1.7,0.4,2.2s-1.2,0.5-1.6,0.1c-0.4-0.4-0.5-1-0.2-1.5c-0.3-0.2-0.6-0.2-0.8-0.2c-0.6,0-1.3,0.3-2.2,0.9l-1.9,1.3
		l1.7,1.6l-1.3,0.9l-1.7-1.6l-6.3,4.3l-1.3-1.2L332.4,159.8z"/>
	<path class="st5" d="M336.7,168.7c1.9-2,5.2-2.5,7.4-0.5c1.9,1.7,1.7,4.1,0.3,5.7c-1.8,2-5.2,2.5-7.3,0.5
		C335.1,172.6,335.3,170.2,336.7,168.7z M343,172.6c1-1.1,0.9-2.5,0-3.3c-1.3-1.2-3.5-0.9-4.9,0.7c-1.1,1.2-0.9,2.5,0,3.4
		C339.4,174.4,341.6,174.2,343,172.6z"/>
	<path class="st5" d="M351.1,174.9l-4.7,3.1c-0.2,0.2-0.5,0.4-0.7,0.6c-0.5,0.6-0.5,1.3,0.1,1.8c0.9,0.8,2.3,0.8,3.8-0.2l4.2-2.8
		l1.3,1.2l-5.5,3.6c-0.3,0.2-0.6,0.4-0.7,0.6c-0.3,0.3-0.3,0.6,0,0.8c0.3,0.2,0.8,0.3,1.9-0.3l0.4,0.8c-1.6,1-2.7,0.8-3.4,0.1
		c-0.8-0.7-0.8-1.7,0-2.5l0.1-0.1c-1.4,0.4-2.7,0.3-3.6-0.5c-0.9-0.9-1.1-2.3-0.1-3.3c0.3-0.3,0.7-0.7,1.2-1l3.2-2.1l-1.2-1.1
		l1.3-0.9L351.1,174.9z"/>
	<path class="st5" d="M357,182.4l-1.2-1.1l1.3-0.9l2.4,2.2l-2.1,1.5c2-0.6,3.4-0.5,4.1,0.1c0.5,0.5,0.6,1.3,0.1,1.8
		c-0.5,0.5-1.3,0.5-1.8,0.1c-0.5-0.4-0.5-1.1-0.3-1.5c-0.7-0.2-2.5-0.1-4.1,1l-3.5,2.3l-1.4-1.2L357,182.4z"/>
	<path class="st5" d="M360.7,194.6c0-0.5,0.1-0.9,0.4-1.3c0.5-0.5,1.1-0.5,1.6-0.1c0.4,0.4,0.4,1,0.1,1.4c-0.1,0.2-0.4,0.3-0.5,0.3
		c0,0.1,0,0.2,0.1,0.4c0.2,0.4,0.5,1,1,1.4c0.7,0.6,1.5,0.9,2,0.4c0.5-0.6,0.1-1.4-0.3-2.4c-0.5-1.3-1-2.5,0-3.6
		c1-1.1,2.7-1.1,4.4,0.4c0.9,0.8,1.4,1.8,1.4,2.7c0,0.5-0.1,0.9-0.4,1.2c-0.5,0.5-1.1,0.5-1.5,0.1c-0.4-0.4-0.4-1-0.1-1.4
		c0.1-0.1,0.3-0.2,0.5-0.3c0-0.1,0-0.2-0.1-0.3c-0.1-0.3-0.4-0.7-0.7-1c-0.7-0.6-1.5-0.8-1.9-0.4c-0.5,0.5-0.1,1.4,0.4,2.5
		c0.5,1.2,0.9,2.5,0,3.6c-1.2,1.3-2.9,1.1-4.5-0.4C361.3,196.7,360.8,195.5,360.7,194.6z"/>
	<path class="st5" d="M374.3,198.3l-4,2.6c-0.3,0.2-0.5,0.4-0.6,0.5c-0.3,0.4-0.3,0.8,0,1c0.4,0.3,0.8,0.5,1.9,0.6l-0.1,1.1
		c-1.6,0-2.5-0.5-3.1-1.1c-0.8-0.7-1-1.8-0.2-2.7c0.2-0.2,0.5-0.4,0.8-0.7l4-2.6l-1.2-1.1l1.3-0.9l1.2,1.1l1.8-1.2l1.9,0.8l-2.4,1.5
		l2,1.9l-1.3,0.9L374.3,198.3z"/>
	<path class="st5" d="M374.5,203.4c1.9-2,5.2-2.5,7.4-0.5c1.9,1.7,1.7,4.1,0.3,5.7c-1.8,2-5.2,2.5-7.3,0.5
		C372.9,207.3,373.1,205,374.5,203.4z M380.8,207.3c1-1.1,0.9-2.5,0-3.3c-1.3-1.2-3.5-0.9-4.9,0.7c-1.1,1.2-0.9,2.5,0,3.4
		C377.2,209.2,379.4,208.9,380.8,207.3z"/>
	<path class="st5" d="M386.3,209.3l-1.2-1.1l1.3-0.9l2.4,2.2l-2.1,1.5c2-0.6,3.4-0.5,4.1,0.1c0.5,0.5,0.6,1.3,0.1,1.8
		c-0.5,0.5-1.3,0.5-1.8,0.1c-0.5-0.4-0.5-1.1-0.3-1.5c-0.7-0.2-2.5-0.1-4.1,1l-3.5,2.3l-1.4-1.2L386.3,209.3z"/>
	<path class="st5" d="M382.2,219.4c0.5-0.5,1.2-0.5,1.6-0.1c0.4,0.4,0.5,0.9,0.2,1.4c0.4,0.3,1.5,0.4,4.3,0l3.7-6.2l-1.2-1.1
		l1.3-0.9l2,1.9l-4,6.1c2.3-0.4,4.4-0.9,5.6-1.6c-0.2-0.4-0.2-1,0.2-1.5c0.4-0.5,1.2-0.5,1.7-0.1c0.6,0.6,0.6,1.4-0.1,2.1
		c-0.8,0.9-2.7,1.7-7.9,2.5c-5,0.7-6.3,0.3-7.3-0.6C381.8,220.8,381.7,220,382.2,219.4z"/>
</g>
<g>
	<path class="st5" d="M96.9,338.4c0-3.2,2.5-6.1,5.9-6.1c3,0,4.7,2.1,4.7,4.6c0,3.1-2.5,6.1-5.9,6.1C98.5,343,96.9,340.8,96.9,338.4
		z M105.3,336.8c0-1.8-1.2-2.8-2.6-2.8c-2,0-3.6,1.9-3.6,4.4c0,1.8,1.2,2.8,2.6,2.8C103.6,341.2,105.3,339.2,105.3,336.8z"/>
	<path class="st5" d="M113.9,332.4l-1.6,6.3c-0.1,0.3-0.1,0.7-0.1,1c0,0.9,0.6,1.5,1.4,1.5c1.4,0,2.5-1.1,3-3.1l1.4-5.6h2.1
		l-1.8,7.3c-0.1,0.4-0.2,0.8-0.2,1.1c0,0.5,0.2,0.7,0.6,0.7c0.4,0,0.9-0.4,1.4-1.7l0.9,0.3c-0.6,2.1-1.7,2.8-2.9,2.8
		c-1.2,0-2-0.8-2-2.1v-0.2c-0.8,1.4-2.1,2.4-3.5,2.4c-1.5,0-2.7-1.1-2.7-2.7c0-0.5,0.1-1.1,0.2-1.7l1.1-4.3h-1.9l0.5-1.8H113.9z"/>
	<path class="st5" d="M124.8,334.2h-1.9l0.5-1.8h3.7l-0.7,2.9c1.3-2,2.5-3.1,3.6-3.1c0.8,0,1.5,0.6,1.5,1.4c0,0.8-0.7,1.5-1.4,1.5
		c-0.7,0-1.3-0.5-1.4-1.1c-0.7,0.3-2.2,1.8-2.8,4l-1.2,4.6h-2.1L124.8,334.2z"/>
	<path class="st5" d="M139.2,338.3v0.4c0,1.6,1.2,2.6,3.1,2.6c1.1,0,2.1-0.2,3.4-0.9l-0.4,2c-1.1,0.5-2,0.7-3.4,0.7
		c-2.5,0-4.8-1.6-4.8-4.4c0-3.5,2.6-6.3,5.7-6.3c2.5,0,4.2,1.4,4.2,3.9c0,0.6-0.1,1.4-0.4,2.2H139.2z M139.5,336.7h5.4
		c0.1-0.3,0.1-0.6,0.1-0.9c0-1.1-0.7-1.9-2.2-1.9S140.1,335.1,139.5,336.7z"/>
	<path class="st5" d="M150.2,334.2h-1.8l0.5-1.8h3.2l1.2,8.2c1.8-2,3.2-4,3.6-5.6c-0.5-0.2-1-0.6-1-1.4c0-0.8,0.6-1.4,1.4-1.4
		c0.9,0,1.6,0.7,1.6,1.8c0,2.2-2.3,5.6-5.6,9h-1.4L150.2,334.2z"/>
	<path class="st5" d="M160.3,338.4c0-3.2,2.5-6.1,5.9-6.1c3,0,4.7,2.1,4.7,4.6c0,3.1-2.5,6.1-5.9,6.1
		C162,343,160.3,340.8,160.3,338.4z M168.7,336.8c0-1.8-1.2-2.8-2.6-2.8c-2,0-3.6,1.9-3.6,4.4c0,1.8,1.2,2.8,2.6,2.8
		C167.1,341.2,168.7,339.2,168.7,336.8z"/>
	<path class="st5" d="M172.9,340.8c0-0.3,0.1-0.7,0.1-1.1l3-12.8h-1.9l0.5-1.8h4l-3.4,14.5c-0.1,0.4-0.2,0.8-0.2,1
		c0,0.5,0.2,0.8,0.6,0.8c0.5,0,0.9-0.4,1.4-1.7l0.9,0.3c-0.6,2.1-1.6,2.8-2.9,2.8C173.7,342.9,172.9,342.1,172.9,340.8z"/>
	<path class="st5" d="M181.1,334.2h-1.8l0.5-1.8h3.2l1.2,8.2c1.8-2,3.2-4,3.6-5.6c-0.5-0.2-1-0.6-1-1.4c0-0.8,0.6-1.4,1.4-1.4
		c0.9,0,1.6,0.7,1.6,1.8c0,2.2-2.3,5.6-5.6,9h-1.4L181.1,334.2z"/>
	<path class="st5" d="M193.3,338.3v0.4c0,1.6,1.2,2.6,3.1,2.6c1.1,0,2.1-0.2,3.4-0.9l-0.4,2c-1.1,0.5-2,0.7-3.4,0.7
		c-2.5,0-4.8-1.6-4.8-4.4c0-3.5,2.6-6.3,5.7-6.3c2.5,0,4.2,1.4,4.2,3.9c0,0.6-0.1,1.4-0.4,2.2H193.3z M193.6,336.7h5.4
		c0.1-0.3,0.1-0.6,0.1-0.9c0-1.1-0.7-1.9-2.2-1.9C195.4,334,194.1,335.1,193.6,336.7z"/>
	<path class="st5" d="M208.3,332.2c1.5,0,2.7,1.1,3.1,2.4l1.8-7.6h-1.9l0.4-1.8h4l-3.4,14.5c-0.1,0.5-0.2,0.8-0.2,1.1
		c0,0.5,0.2,0.7,0.6,0.7s0.9-0.4,1.4-1.7l0.9,0.3c-0.6,2.1-1.7,2.8-2.9,2.8c-1.2,0-2-0.8-2-2.1v-0.1c-0.9,1.2-2.1,2.2-3.7,2.2
		c-2.1,0-3.6-1.6-3.6-4.1C202.8,335.3,205.3,332.2,208.3,332.2z M210.9,336.6c0-1.6-0.8-2.6-2.4-2.6c-2,0-3.5,2.2-3.5,4.5
		c0,1.5,0.8,2.6,2.2,2.6C209.3,341.2,210.9,339,210.9,336.6z"/>
	<path class="st5" d="M224.7,327h-1.9l0.5-1.8h4l-2.1,9.2c0.8-1.2,2.1-2.1,3.5-2.1c2.4,0,3.8,1.7,3.8,4.2c0,3.6-2.5,6.6-5.5,6.6
		c-1.5,0-2.8-1-3.2-2.4l-0.6,2.2h-2L224.7,327z M230.2,336.7c0-1.6-0.8-2.7-2.3-2.7c-2,0-3.8,2.3-3.8,4.6c0,1.5,0.9,2.5,2.5,2.5
		C228.6,341.1,230.2,339,230.2,336.7z"/>
	<path class="st5" d="M236.5,334.2h-1.9l0.5-1.8h3.7l-0.7,2.9c1.3-2,2.5-3.1,3.6-3.1c0.8,0,1.5,0.6,1.5,1.4c0,0.8-0.7,1.5-1.4,1.5
		c-0.7,0-1.3-0.5-1.4-1.1c-0.7,0.3-2.2,1.8-2.8,4l-1.2,4.6h-2.1L236.5,334.2z"/>
	<path class="st5" d="M243.9,338.8c0-3.5,2.4-6.6,5.4-6.6c1.6,0,2.7,1.1,3.1,2.4l0.7-2.3h2l-1.8,7.4c-0.1,0.4-0.2,0.8-0.2,1.1
		c0,0.5,0.2,0.7,0.6,0.7c0.4,0,0.9-0.4,1.3-1.7l0.9,0.3c-0.6,2.1-1.7,2.8-2.9,2.8c-1.2,0-2-0.8-2-2.1v-0.1c-0.9,1.2-2.1,2.2-3.7,2.2
		C245.3,343,243.9,341.4,243.9,338.8z M251.9,336.6c0-1.5-0.8-2.5-2.4-2.5c-2,0-3.5,2.2-3.5,4.5c0,1.5,0.7,2.6,2.2,2.6
		C250.4,341.2,251.9,338.9,251.9,336.6z"/>
	<path class="st5" d="M264.4,340.9c0-0.3,0.1-0.8,0.2-1.2l0.9-3.1c0.1-0.4,0.2-0.7,0.2-1.1c0-0.9-0.6-1.5-1.6-1.5
		c-1.3,0-2.5,1.1-3,3.1l-1.4,5.6h-2.1l2.2-8.6h-1.9l0.5-1.8h3.7l-0.6,2.4c0.8-1.4,2.2-2.6,3.6-2.6c1.6,0,2.8,1.1,2.8,2.9
		c0,0.5-0.1,1.1-0.3,1.7l-0.9,3c-0.1,0.3-0.1,0.6-0.1,0.8c0,0.5,0.2,0.8,0.6,0.8c0.4,0,0.9-0.4,1.3-1.7l0.9,0.3
		c-0.6,1.9-1.5,2.8-2.8,2.8C265.2,342.9,264.4,342.1,264.4,340.9z"/>
	<path class="st5" d="M276.3,332.2c1.5,0,2.7,1.1,3.1,2.4l1.8-7.6h-1.9l0.4-1.8h4l-3.4,14.5c-0.1,0.5-0.2,0.8-0.2,1.1
		c0,0.5,0.2,0.7,0.6,0.7s0.9-0.4,1.4-1.7l0.9,0.3c-0.6,2.1-1.7,2.8-2.9,2.8c-1.2,0-2-0.8-2-2.1v-0.1c-0.9,1.2-2.1,2.2-3.7,2.2
		c-2.1,0-3.6-1.6-3.6-4.1C270.8,335.3,273.3,332.2,276.3,332.2z M279,336.6c0-1.6-0.8-2.6-2.4-2.6c-2,0-3.5,2.2-3.5,4.5
		c0,1.5,0.8,2.6,2.2,2.6C277.3,341.2,279,339,279,336.6z"/>
	<path class="st5" d="M289.7,341.6c-0.4-0.4-0.6-0.9-0.6-1.4c0-0.8,0.5-1.3,1.2-1.3c0.7,0,1.2,0.5,1.2,1.2c0,0.2-0.1,0.5-0.2,0.7
		c0.1,0.1,0.2,0.2,0.4,0.3c0.5,0.2,1.2,0.4,1.9,0.4c1.1,0,2-0.4,2-1.3c0-0.9-1-1.3-2.2-1.8c-1.4-0.6-2.8-1.4-2.8-3
		c0-1.7,1.4-3.1,4-3.1c1.4,0,2.6,0.5,3.3,1.2c0.4,0.4,0.6,0.9,0.6,1.3c0,0.8-0.6,1.3-1.2,1.3c-0.6,0-1.2-0.5-1.2-1.2
		c0-0.2,0-0.4,0.2-0.7c-0.1,0-0.2-0.1-0.4-0.2c-0.4-0.1-0.9-0.2-1.4-0.2c-1.1,0-1.9,0.4-1.9,1.2c0,0.8,1,1.2,2.2,1.8
		c1.4,0.6,2.8,1.4,2.8,3c0,2-1.7,3.2-4.1,3.2C291.9,343,290.5,342.4,289.7,341.6z"/>
	<path class="st5" d="M304.2,334.2l-1.3,5.3c-0.1,0.4-0.1,0.7-0.1,0.9c0,0.6,0.3,0.9,0.8,0.9c0.6,0,1.1-0.2,2.1-0.9l0.7,1
		c-1.3,1.2-2.5,1.5-3.5,1.5c-1.3,0-2.3-0.7-2.3-2.2c0-0.4,0.1-0.8,0.2-1.2l1.3-5.3h-1.9l0.4-1.8h1.9l0.6-2.4l2.3-0.8l-0.8,3.1h3.2
		l-0.5,1.8H304.2z"/>
	<path class="st5" d="M308.3,338.4c0-3.2,2.5-6.1,5.9-6.1c3,0,4.7,2.1,4.7,4.6c0,3.1-2.5,6.1-5.9,6.1
		C310,343,308.3,340.8,308.3,338.4z M316.7,336.8c0-1.8-1.2-2.8-2.6-2.8c-2,0-3.6,1.9-3.6,4.4c0,1.8,1.2,2.8,2.6,2.8
		C315.1,341.2,316.7,339.2,316.7,336.8z"/>
	<path class="st5" d="M322.9,334.2H321l0.5-1.8h3.7l-0.7,2.9c1.3-2,2.5-3.1,3.6-3.1c0.8,0,1.5,0.6,1.5,1.4c0,0.8-0.7,1.5-1.4,1.5
		c-0.7,0-1.3-0.5-1.4-1.1c-0.7,0.3-2.2,1.8-2.8,4l-1.2,4.6h-2.1L322.9,334.2z"/>
	<path class="st5" d="M327.3,346.1c0-0.8,0.6-1.3,1.3-1.3c0.6,0,1.1,0.4,1.2,1c0.6,0,1.6-0.9,3.7-3.4l-1.7-8.2H330l0.5-1.8h3.2
		l1.4,8.3c1.6-2.2,3.1-4.2,3.5-5.7c-0.5-0.2-1-0.7-1-1.4c0-0.7,0.6-1.4,1.4-1.4c1,0,1.6,0.7,1.6,1.9c0,1.4-0.9,3.5-4.8,8.3
		c-3.6,4.5-5.1,5.2-6.7,5.2C328,347.6,327.3,346.9,327.3,346.1z"/>
</g>
</svg>
