<?xml version="1.0" encoding="utf-8"?>
<!-- Generator: Adobe Illustrator 22.1.0, SVG Export Plug-In . SVG Version: 6.00 Build 0)  -->
<svg version="1.1" id="Layer_1" xmlns="http://www.w3.org/2000/svg" xmlns:xlink="http://www.w3.org/1999/xlink" x="0px" y="0px"
	 viewBox="0 0 16.5 9.1" style="enable-background:new 0 0 16.5 9.1;" xml:space="preserve">
<style type="text/css">
	.st0{fill:#2C3F77;}
	.st1{fill:#E51B23;}
</style>
<g>
	<polygon class="st0" points="3.1,0 7.1,2.5 7.1,0 	"/>
	<polygon class="st0" points="0,3.4 4,3.4 0,0.9 	"/>
	<polygon class="st0" points="10.2,0 10.2,2.7 15.3,0 	"/>
	<polygon class="st0" points="14,3.4 16.5,3.4 16.5,2.1 	"/>
	<polygon class="st1" points="7.8,0 7.8,4 0,4 0,5.6 7.8,5.6 7.8,9.1 9.5,9.1 9.5,5.6 16.5,5.6 16.5,4 9.5,4 9.5,0 	"/>
	<polygon class="st0" points="7.1,3.4 7.2,3.4 7.1,3.3 	"/>
	<polygon class="st0" points="0,0 0,0.1 5.4,3.4 7.1,3.4 7.1,3.3 1.7,0 	"/>
	<polygon class="st1" points="0,0 0,0.1 5.4,3.4 7.1,3.4 7.1,3.3 1.7,0 	"/>
	<polygon class="st0" points="10.4,3.4 12.4,3.4 16.5,1.3 16.5,0.2 	"/>
	<polygon class="st1" points="10.4,3.4 12.4,3.4 16.5,1.3 16.5,0.2 	"/>
	<polygon class="st0" points="10.2,6.2 10.2,6.2 10.2,6.2 	"/>
	<polygon class="st0" points="10.2,6.2 10.2,6.2 15,9.1 16.5,9.1 16.5,8.9 12,6.2 	"/>
	<polygon class="st1" points="10.2,6.2 10.2,6.2 15,9.1 16.5,9.1 16.5,8.9 12,6.2 	"/>
	<polygon class="st0" points="4.8,6.2 0,8.7 0,9.1 1.2,9.1 6.9,6.2 	"/>
	<polygon class="st1" points="4.8,6.2 0,8.7 0,9.1 1.2,9.1 6.9,6.2 	"/>
	<polygon class="st0" points="13.4,6.2 16.5,8.1 16.5,6.2 	"/>
	<polygon class="st0" points="10.2,9.1 13.6,9.1 10.2,7.1 	"/>
	<polygon class="st0" points="3.2,6.2 0,6.2 0,7.9 	"/>
	<polygon class="st0" points="2.7,9.1 7.1,9.1 7.1,6.9 	"/>
	<rect x="0" y="0.1" class="st0" width="0.2" height="9.1"/>
	<rect x="16.4" y="0.1" class="st0" width="0.2" height="9.1"/>
	<rect x="0" class="st0" width="16.5" height="0.2"/>
	<rect x="0" y="9" class="st0" width="16.5" height="0.2"/>
</g>
</svg>
