<?xml version="1.0" encoding="utf-8"?>
<!-- Generator: Adobe Illustrator 22.1.0, SVG Export Plug-In . SVG Version: 6.00 Build 0)  -->
<svg version="1.1" id="Layer_1" xmlns="http://www.w3.org/2000/svg" xmlns:xlink="http://www.w3.org/1999/xlink" x="0px" y="0px"
	 viewBox="0 0 16.5 9.1" style="enable-background:new 0 0 16.5 9.1;" xml:space="preserve">
<style type="text/css">
	.st0{fill:#E51B23;}
	.st1{fill:#2C3F77;}
	.st2{display:none;}
	.st3{display:inline;fill:#B82025;}
	.st4{display:inline;fill:#2C3F77;}
	.st5{display:inline;fill:#E51B23;}
</style>
<g>
	<rect x="0" y="0" class="st0" width="0.2" height="9.1"/>
	<rect x="0" y="8" class="st0" width="16.4" height="1.1"/>
	<rect x="0" y="6" class="st0" width="16.4" height="1.1"/>
	<rect x="7.4" y="3.9" class="st0" width="9.1" height="1.1"/>
	<rect x="7.4" y="1.9" class="st0" width="9" height="1.1"/>
	<rect x="7.4" y="0" class="st0" width="9.1" height="1"/>
	<path class="st1" d="M2.7,4.2L2.3,4h0.5l0.1-0.4L3,4h0.5L3.1,4.2l0.1,0.4L2.9,4.4L2.5,4.7L2.7,4.2z M6.3,4.2L6,4h0.5l0.1-0.4L6.7,4
		h0.4L6.8,4.2l0.1,0.4L6.6,4.4L6.2,4.7L6.3,4.2z M0.8,3.2L0.5,3h0.5L1,2.5L1.2,3h0.5L1.3,3.2l0.1,0.4L1,3.4L0.7,3.7L0.8,3.2z
		 M4.6,3.2L4.2,3h0.5l0.1-0.4L5,3h0.5L5.1,3.2l0.1,0.4L4.8,3.4L4.5,3.7L4.6,3.2z M2.7,2L2.3,1.8h0.5l0.1-0.4L3,1.8h0.5L3.1,2
		l0.1,0.4L2.9,2.2L2.5,2.5L2.7,2z M6.3,2L6,1.8h0.5l0.1-0.4l0.1,0.4h0.4L6.8,2l0.1,0.4L6.6,2.2L6.2,2.5L6.3,2z M0.8,1.1L0.5,0.8h0.5
		L1,0.3l0.1,0.4h0.5L1.3,1.1l0.1,0.4L1,1.2L0.7,1.5L0.8,1.1z M4.6,1.1L4.2,0.8h0.5l0.1-0.4L5,0.8h0.5L5.1,1.1l0.1,0.4L4.8,1.2
		L4.5,1.5L4.6,1.1z M0,5.1h7.6V0H0V5.1z"/>
	<rect x="16.3" y="0" class="st0" width="0.2" height="9.1"/>
</g>
<g class="st2">
	<rect x="0" class="st3" width="3.9" height="9.1"/>
	<rect x="12.8" class="st3" width="3.6" height="9.1"/>
	<path class="st3" d="M8.3,1.3L7.8,2.4c-0.1,0.1-0.2,0.1-0.3,0L7,2.2l0.3,1.7c0.1,0.3-0.1,0.3-0.2,0.2L6.4,3.3L6.2,3.7
		c0,0.1-0.1,0.1-0.2,0.1L5.2,3.6l0.2,0.9c0.1,0.2,0.1,0.3-0.1,0.3L5,5l1.6,1.4c0.1,0.1,0.1,0.1,0.1,0.2L6.5,7.1C7.1,7,7.6,7,8.1,6.9
		c0,0,0.1,0,0.1,0.1L8.2,8.7h0.3l0-1.7c0-0.1,0.1-0.1,0.1-0.1C9.1,7,9.6,7,10.1,7.1L10,6.6c0-0.1,0-0.2,0.1-0.2L11.7,5l-0.3-0.2
		c-0.1-0.1-0.1-0.1-0.1-0.3l0.2-0.9l-0.9,0.2c-0.1,0-0.2,0-0.2-0.1l-0.1-0.4L9.6,4.1C9.5,4.3,9.3,4.3,9.3,3.9l0.3-1.7L9.2,2.4
		C9.1,2.5,9,2.5,8.9,2.4L8.3,1.3z"/>
	<rect x="0" class="st3" width="16.4" height="0.2"/>
	<rect x="0" y="8.9" class="st3" width="16.4" height="0.2"/>
</g>
<g class="st2">
	<polygon class="st4" points="3.1,0.1 7.1,2.5 7.1,0.1 	"/>
	<polygon class="st4" points="0,3.4 4,3.4 0,1 	"/>
	<polygon class="st4" points="10.2,0.1 10.2,2.7 15.3,0.1 	"/>
	<polygon class="st4" points="14,3.4 16.5,3.4 16.5,2.1 	"/>
	<polygon class="st5" points="7.8,0.1 7.8,4 0,4 0,5.6 7.8,5.6 7.8,9.1 9.5,9.1 9.5,5.6 16.5,5.6 16.5,4 9.5,4 9.5,0.1 	"/>
	<polygon class="st4" points="7.1,3.4 7.2,3.4 7.1,3.3 	"/>
	<polygon class="st4" points="0,0.1 0,0.2 5.4,3.4 7.1,3.4 7.1,3.3 1.7,0.1 	"/>
	<polygon class="st5" points="0,0.1 0,0.2 5.4,3.4 7.1,3.4 7.1,3.3 1.7,0.1 	"/>
	<polygon class="st4" points="10.4,3.4 12.4,3.4 16.5,1.3 16.5,0.3 	"/>
	<polygon class="st5" points="10.4,3.4 12.4,3.4 16.5,1.3 16.5,0.3 	"/>
	<polygon class="st4" points="10.2,6.2 10.2,6.2 10.2,6.2 	"/>
	<polygon class="st4" points="10.2,6.2 10.2,6.2 15,9.1 16.5,9.1 16.5,8.9 12,6.2 	"/>
	<polygon class="st5" points="10.2,6.2 10.2,6.2 15,9.1 16.5,9.1 16.5,8.9 12,6.2 	"/>
	<polygon class="st4" points="4.8,6.2 0,8.7 0,9.1 1.2,9.1 6.9,6.2 	"/>
	<polygon class="st5" points="4.8,6.2 0,8.7 0,9.1 1.2,9.1 6.9,6.2 	"/>
	<polygon class="st4" points="13.4,6.2 16.5,8.1 16.5,6.2 	"/>
	<polygon class="st4" points="10.2,9.1 13.6,9.1 10.2,7.1 	"/>
	<polygon class="st4" points="3.2,6.2 0,6.2 0,7.9 	"/>
	<polygon class="st4" points="2.7,9.1 7.1,9.1 7.1,6.9 	"/>
	<rect x="0" y="0.2" class="st4" width="0.2" height="9"/>
	<rect x="16.4" y="0.2" class="st4" width="0.2" height="9"/>
	<rect x="0" y="0.1" class="st4" width="16.5" height="0.2"/>
	<rect x="0" y="9" class="st4" width="16.5" height="0.2"/>
</g>
</svg>
