<?xml version="1.0" encoding="utf-8"?>
<!-- Generator: Adobe Illustrator 22.1.0, SVG Export Plug-In . SVG Version: 6.00 Build 0)  -->
<svg version="1.1" id="Layer_1" xmlns="http://www.w3.org/2000/svg" xmlns:xlink="http://www.w3.org/1999/xlink" x="0px" y="0px"
	 viewBox="0 0 186 156" style="enable-background:new 0 0 186 156;" xml:space="preserve">
<style type="text/css">
	.st0{fill:#FFFFFF;}
</style>
<path class="st0" d="M144.7,48c0.7,2.5,1,5.1,1,7.9c0,3.2-0.5,6.5-1.4,9.6c-1,3.3-2.2,6.4-3.6,9.1s-3.4,5.7-6.1,8.9
	c-2.7,3.3-5.4,6.3-7.9,8.9c-2.5,2.5-5.8,5.6-9.8,9c-4,3.5-7.6,6.5-10.7,9s-7.1,5.7-11.9,9.5c-3.1,2.5-5.9,4.7-8.4,6.7
	c-3-2.6-6.6-5.6-10.7-8.9c-5.8-4.7-10.9-8.8-15.3-12.3c-4.2-3.3-8.8-7.4-13.6-11.9C41.6,89,37.6,84.8,34.6,81
	c-2.8-3.7-5.2-7.8-7-12.3c-1.7-4.2-2.5-8.5-2.3-12.6v-0.2c0-7.6,2.6-13.9,8.1-19.3c5.4-5.4,11.8-8,19.5-8c2.4,0,5,0.7,7.7,2.2
	c3.1,1.7,5.7,3.6,7.7,5.5c2.2,2.1,4.4,4.7,6.6,7.5c2.9,3.7,3.9,5.3,4.2,5.8c0.7,1.2,1.3,2.2,1.7,2.9l4.6,8l6.5-10.6l0.1-0.2
	c0.8-1.5,2.3-3.5,4.2-5.8c2.1-2.5,4.4-5,6.8-7.5c2.2-2.2,4.8-4.1,7.8-5.7c2.8-1.4,5.3-2.1,7.8-2.1c3.9,0,7.4,0.7,10.6,2
	c2.8-2.8,5.5-5.6,8.2-8.2c-5.5-3.2-11.8-4.9-18.8-4.9c-4.3,0-8.6,1.1-12.9,3.4c-4,2.1-7.6,4.7-10.6,7.7c-2.7,2.7-5.2,5.5-7.5,8.2
	c-0.8,1-1.5,1.9-2.2,2.8c-0.6-0.8-1.2-1.6-1.9-2.6c-2.5-3.3-5.1-6.2-7.7-8.7c-2.8-2.7-6.2-5.1-10.1-7.3c-4.3-2.4-8.7-3.6-13-3.6
	c-10.6,0-19.7,3.8-27.2,11.2C18,36,14.2,45.1,14.2,55.6c-0.2,5.6,0.8,11.3,3.1,17c2.2,5.4,5,10.5,8.5,14.9
	c3.3,4.3,7.6,8.9,12.8,13.8c5.1,4.8,9.9,9,14.3,12.5c4.3,3.5,9.4,7.5,15.3,12.2c5.7,4.6,10.3,8.5,13.7,11.6l3.5,3.2l3.7-2.9
	c3.2-2.5,7.2-5.7,12-9.5s8.8-7,11.9-9.5c3.2-2.5,6.9-5.6,11-9.2c4.2-3.7,7.7-6.9,10.4-9.6c2.7-2.8,5.6-6,8.6-9.6
	c3.1-3.8,5.5-7.4,7.3-10.8c1.7-3.3,3.2-7.1,4.4-11.1c1.2-4.2,1.8-8.4,1.8-12.7c0-6-1.2-11.5-3.5-16.5C150.5,42,147.7,44.9,144.7,48z
	"/>
<path class="st0" d="M86.3,103.7l-4.5-4.5c-6.9-6.8-26.1-25.3-32.1-29.3l6.6-10c6.3,4.2,21.5,18.7,29.4,26.3
	c14.4-16.3,61.3-68.8,78.1-79.4l6.4,10.1c-15,9.5-62.6,62.3-79.7,81.9L86.3,103.7z"/>
</svg>
