<?xml version="1.0" encoding="utf-8"?>
<!-- Generator: Adobe Illustrator 22.1.0, SVG Export Plug-In . SVG Version: 6.00 Build 0)  -->
<svg version="1.1" id="Layer_1" xmlns="http://www.w3.org/2000/svg" xmlns:xlink="http://www.w3.org/1999/xlink" x="0px" y="0px"
	 viewBox="0 0 37.3 34.6" style="enable-background:new 0 0 37.3 34.6;" xml:space="preserve">
<style type="text/css">
	.st0{opacity:0.33;fill:#B6B8BA;}
</style>
<path class="st0" d="M22.7,27.3c-1,2-2.4,3.5-4.2,4.6c-1.8,1.1-4,1.6-6.3,1.6c-2.4,0-4.3-0.6-5.8-1.9c-1.5-1.3-2.3-3-2.3-5.2
	s0.5-4,1.4-5.3C8,17.7,13.1,16,20.7,16h2v-5.5c0-4.2-1.9-6.3-5.7-6.3c-1.7,0-3.1,0.4-4.2,1.2s-1.6,1.7-1.6,2.8c0,1,0.5,1.7,1.5,2
	c0,1-0.4,1.8-1.1,2.5c-0.7,0.7-1.6,1.1-2.5,1.1s-1.7-0.4-2.4-1.1C6,12,5.6,11.1,5.6,10.1c0-2,1.1-3.7,3.3-5.1s4.9-2.1,8.1-2.1
	c7.7,0,11.5,2.9,11.4,8.8v17.4c0,1.7,0.7,2.6,2.1,2.6s2.1-0.8,2.1-2.5h1.2c0,1.3-0.4,2.3-1.3,3.1c-0.9,0.8-2.1,1.2-3.8,1.2
	c-1.7,0-3.1-0.5-4.2-1.5C23.4,30.9,22.8,29.3,22.7,27.3z M22.7,23.2v-5.8h-2c-3,0-5.4,0.7-7.4,2.1s-3,3.5-3,6.4
	c0,1.5,0.4,2.7,1.2,3.6s2.1,1.3,3.7,1.3c1.7,0,3.3-0.7,4.8-2C21.6,27.4,22.4,25.5,22.7,23.2z"/>
</svg>
