<?xml version="1.0" encoding="utf-8"?>
<!-- Generator: Adobe Illustrator 22.1.0, SVG Export Plug-In . SVG Version: 6.00 Build 0)  -->
<svg version="1.1" id="Layer_1" xmlns="http://www.w3.org/2000/svg" xmlns:xlink="http://www.w3.org/1999/xlink" x="0px" y="0px"
	 viewBox="0 0 135 164.5" style="enable-background:new 0 0 135 164.5;" xml:space="preserve">
<style type="text/css">
	.st0{fill:#F59099;}
</style>
<g>
	<path class="st0" d="M80.6,100.1c-2.6,0-4.7,2.8-4.7,5.7c0,1.9,1.1,3.1,3.1,3.1c2.5,0,4.5-2.7,4.5-5.5
		C83.5,101.4,82.5,100.1,80.6,100.1z"/>
	<path class="st0" d="M76.3,87.2c1.9,0,2.5-1.2,2.5-4c0-6.2,0-7.4,0-7.6c0,0,0,0,0,0c0-0.2,0-1.3,0-7.3c0-3-0.5-4.5-2.6-4.5
		c-1.5,0-2.6,0.8-2.6,4.5v14.9C73.6,86,74.2,87.2,76.3,87.2z"/>
	<path class="st0" d="M63.7,87.2c2.1,0,2.7-1.2,2.7-4l0-12c-0.5,0.8-1.4,1.2-3,2.1c-1.5,0.8-2.1,1.6-2.2,3.2c0,1,0,0,0,6.8
		C61.1,86,61.8,87.2,63.7,87.2z"/>
	<path class="st0" d="M62.8,100.1c-2.5,0-4.4,2.7-4.4,5.6c0,1.9,0.9,3.2,2.7,3.2c2.6,0,4.6-2.8,4.6-5.7
		C65.7,101.4,64.7,100.1,62.8,100.1z"/>
	<path class="st0" d="M66.3,32.5c-27.2,0-49.2,22-49.2,49.3s22,49.2,49.2,49.2s49.2-22,49.2-49.2S93.5,32.5,66.3,32.5z M71.1,47.7
		h2.5v17.2c0.4-0.9,1.3-1.9,3-1.9c2.9,0,4.7,1.6,4.7,5.4c0,6.5,0,7.2,0,7.3c0,0,0,0,0,0c0,0.1,0,0.8,0,7.7c0,3.1-1.7,4.7-5,4.7
		c-1.5,0-2.7-0.3-3.5-0.9l-0.4,0.5h-1.2V47.7z M58.7,77c0-1.7,0.4-2.2,1-2.7c0.9-0.9,2.2-1.4,3.5-1.9c1.8-0.8,3.3-1.4,3.2-3.1v-1.7
		h0c0-2.7-0.7-3.8-2.8-3.8c-2.1,0-2.5,1.3-2.5,4c0,0.7,0,0.1,0,0.9h-2.5c0-1.1,0-0.6,0-1.2c0-3.1,1.6-4.5,4.9-4.5
		c3.3,0,5.2,1.3,5.2,4.4c0,0.1,0,0.2,0,0.3c0,2.4,0,20.1,0,20.1h-1.2l-0.4-0.5c-0.9,0.6-2,0.9-3.5,0.9c-3.3,0-5-1.6-5-4.7
		C58.7,81.6,58.7,78.6,58.7,77z M46.8,67.3c0-3.1,1.9-4.4,5.2-4.4c3.3,0,4.9,1.4,4.9,4.5c0,0.6,0,0.1,0,1.2h-2.5c0-0.8,0-0.2,0-0.9
		c0-2.8-0.4-4-2.5-4c-2.1,0-2.8,1.1-2.8,3.9c0,7.4,0,7.8,0,7.8c0,0,0,0.4,0,7.8c0,2.8,0.6,4,2.5,4c2.1,0,2.7-1.2,2.7-4
		c0-3.2,0-5.6,0-5.6h2.5c0,0,0,2.5,0,5.9c0,3.1-1.8,4.4-5.1,4.4c-3.3,0-5-1.6-5-4.7C46.8,67.6,46.8,83.1,46.8,67.3z M55,100.3H51
		l-1.7,6.6c-0.1,0.5-0.2,0.9-0.2,1.1c0,0.7,0.4,1.1,1,1.1c0.7,0,1.3-0.3,2.6-1.1l0.9,1.3c-1.7,1.5-3.1,1.9-4.4,1.9
		c-1.6,0-2.8-0.9-2.8-2.7c0-0.5,0.1-1,0.2-1.6l1.7-6.6h-2.3l0.5-2.2h2.4l0.8-2.9l2.9-1l-1,3.9h4L55,100.3z M64.7,108.6v-0.2
		c-1.1,1.5-2.7,2.8-4.6,2.8c-2.6,0-4.4-2-4.4-5.2c0-4.4,3.1-8.2,6.8-8.2c2,0,3.4,1.4,3.9,3.1l0.8-2.9h2.5l-2.3,9.2
		c-0.1,0.5-0.2,1-0.2,1.3c0,0.6,0.3,0.9,0.8,0.9c0.5,0,1.1-0.5,1.7-2.1l1.2,0.4c-0.8,2.6-2.1,3.5-3.6,3.5
		C65.6,111.2,64.7,110.1,64.7,108.6z M79.4,111.2c-1.9,0-3.3-1.3-4-2.9l-1.5,6.3h2.5l-0.6,2.2h-7l0.6-2.2h1.9l3.4-14.4h-2.4l0.6-2.2
		h4.7l-0.7,2.8c1.1-1.6,2.7-3.1,4.7-3.1c2.9,0,4.7,2.1,4.7,5.2C86.3,107.5,83.1,111.2,79.4,111.2z M83.6,87.7v-24h2.5v24h-1.2H83.6z
		 M84.8,57.4c-1,0-1.7-0.8-1.7-1.7c0-1,0.8-1.7,1.7-1.7c1,0,1.7,0.8,1.7,1.7C86.6,56.7,85.8,57.4,84.8,57.4z"/>
</g>
<path class="st0" d="M118,48c-0.3,0-0.6-0.1-0.8-0.4C103,27.4,85.2,22,72.6,21c-16-1.3-30.2,4-37.6,8.8c-0.5,0.3-1.1,0.2-1.4-0.3
	c-0.3-0.5-0.2-1.1,0.3-1.4c7.9-5.3,22.3-10.5,38.8-9.2c12.9,1,31.4,6.6,46.1,27.4c0.3,0.5,0.2,1.1-0.2,1.4C118.4,48,118.2,48,118,48
	z"/>
<path class="st0" d="M67.1,145.3c-7.9,0-14.9-1.5-20.5-3.4c-13-4.3-29-14.8-34.5-26.5c-0.2-0.5,0-1.1,0.5-1.3c0.5-0.2,1.1,0,1.3,0.5
	c4,8.5,16.7,20,33.3,25.4c11.6,3.8,29.6,6.2,49.3-4.4c0.5-0.3,1.1-0.1,1.4,0.4c0.3,0.5,0.1,1.1-0.4,1.4
	C86.6,143.3,76.2,145.3,67.1,145.3z"/>
<path class="st0" d="M13.5,26.3c-0.2,0-0.4-0.1-0.6-0.3c-0.3-0.3-0.2-0.8,0.1-1.1C41,2,63.9-1.7,97.3,11.3c0.4,0.1,0.6,0.6,0.4,1
	c-0.2,0.4-0.6,0.6-1,0.4C63.9,0,41.5,3.6,14,26.1C13.9,26.2,13.7,26.3,13.5,26.3z"/>
<path class="st0" d="M71.6,160.5c-9.6,0-21-1.8-33.4-7.3c-0.4-0.2-0.5-0.6-0.4-1c0.2-0.4,0.6-0.5,1-0.4c24.9,11.2,62,10.4,81.6-13.3
	c0.3-0.3,0.7-0.4,1.1-0.1c0.3,0.3,0.4,0.7,0.1,1.1c-7.7,9.3-20.2,16.4-34.2,19.4C83,159.8,77.7,160.5,71.6,160.5z"/>
</svg>
