<?xml version="1.0" encoding="utf-8"?>
<!-- Generator: Adobe Illustrator 22.1.0, SVG Export Plug-In . SVG Version: 6.00 Build 0)  -->
<svg version="1.1" id="Layer_1" xmlns="http://www.w3.org/2000/svg" xmlns:xlink="http://www.w3.org/1999/xlink" x="0px" y="0px"
	 viewBox="0 0 16.5 9.1" style="enable-background:new 0 0 16.5 9.1;" xml:space="preserve">
<style type="text/css">
	.st0{fill:#B82025;}
	.st1{display:none;}
	.st2{display:inline;fill:#2C3F77;}
	.st3{display:inline;fill:#E51B23;}
</style>
<g>
	<rect x="0" class="st0" width="4" height="9.1"/>
	<rect x="12.8" class="st0" width="3.7" height="9.1"/>
	<path class="st0" d="M8.4,1.3L7.8,2.4c-0.1,0.1-0.2,0.1-0.3,0L7.1,2.2l0.3,1.7c0.1,0.3-0.1,0.3-0.3,0.2L6.4,3.3L6.3,3.7
		c0,0.1-0.1,0.1-0.2,0.1L5.2,3.6l0.2,0.9c0.1,0.2,0.1,0.3-0.1,0.3L5,5l1.6,1.4c0.1,0.1,0.1,0.1,0.1,0.2L6.6,7.1C7.1,7,7.6,7,8.2,6.9
		c0,0,0.1,0,0.1,0.1L8.2,8.7h0.3l0-1.7c0-0.1,0.1-0.1,0.1-0.1C9.1,7,9.6,7,10.2,7.1L10,6.6c0-0.1,0-0.2,0.1-0.2L11.7,5l-0.3-0.2
		c-0.1-0.1-0.1-0.1-0.1-0.3l0.2-0.9l-0.9,0.2c-0.1,0-0.2,0-0.2-0.1l-0.1-0.4L9.6,4.1C9.5,4.3,9.3,4.3,9.4,3.9l0.3-1.7L9.3,2.4
		C9.1,2.5,9,2.5,9,2.4L8.4,1.3z"/>
	<rect x="0" class="st0" width="16.5" height="0.2"/>
	<rect x="0" y="9" class="st0" width="16.5" height="0.2"/>
</g>
<g class="st1">
	<polygon class="st2" points="3.1,0.1 7.1,2.5 7.1,0.1 	"/>
	<polygon class="st2" points="0,3.4 4,3.4 0,1 	"/>
	<polygon class="st2" points="10.2,0.1 10.2,2.7 15.3,0.1 	"/>
	<polygon class="st2" points="14,3.4 16.5,3.4 16.5,2.1 	"/>
	<polygon class="st3" points="7.8,0.1 7.8,4 0,4 0,5.6 7.8,5.6 7.8,9.1 9.5,9.1 9.5,5.6 16.5,5.6 16.5,4 9.5,4 9.5,0.1 	"/>
	<polygon class="st2" points="7.1,3.4 7.2,3.4 7.1,3.3 	"/>
	<polygon class="st2" points="0,0.1 0,0.2 5.4,3.4 7.1,3.4 7.1,3.3 1.7,0.1 	"/>
	<polygon class="st3" points="0,0.1 0,0.2 5.4,3.4 7.1,3.4 7.1,3.3 1.7,0.1 	"/>
	<polygon class="st2" points="10.4,3.4 12.4,3.4 16.5,1.3 16.5,0.3 	"/>
	<polygon class="st3" points="10.4,3.4 12.4,3.4 16.5,1.3 16.5,0.3 	"/>
	<polygon class="st2" points="10.2,6.2 10.2,6.2 10.2,6.2 	"/>
	<polygon class="st2" points="10.2,6.2 10.2,6.2 15,9.1 16.5,9.1 16.5,8.9 12,6.2 	"/>
	<polygon class="st3" points="10.2,6.2 10.2,6.2 15,9.1 16.5,9.1 16.5,8.9 12,6.2 	"/>
	<polygon class="st2" points="4.8,6.2 0,8.7 0,9.1 1.2,9.1 6.9,6.2 	"/>
	<polygon class="st3" points="4.8,6.2 0,8.7 0,9.1 1.2,9.1 6.9,6.2 	"/>
	<polygon class="st2" points="13.4,6.2 16.5,8.1 16.5,6.2 	"/>
	<polygon class="st2" points="10.2,9.1 13.6,9.1 10.2,7.1 	"/>
	<polygon class="st2" points="3.2,6.2 0,6.2 0,7.9 	"/>
	<polygon class="st2" points="2.7,9.1 7.1,9.1 7.1,6.9 	"/>
	<rect x="0" y="0.2" class="st2" width="0.2" height="9"/>
	<rect x="16.4" y="0.2" class="st2" width="0.2" height="9"/>
	<rect x="0" y="0.1" class="st2" width="16.5" height="0.2"/>
	<rect x="0" y="9" class="st2" width="16.5" height="0.2"/>
</g>
</svg>
