<?xml version="1.0" encoding="utf-8"?>
<!-- Generator: Adobe Illustrator 22.1.0, SVG Export Plug-In . SVG Version: 6.00 Build 0)  -->
<svg version="1.1" id="Layer_1" xmlns="http://www.w3.org/2000/svg" xmlns:xlink="http://www.w3.org/1999/xlink" x="0px" y="0px"
	 viewBox="0 0 201 203" style="enable-background:new 0 0 201 203;" xml:space="preserve">
<style type="text/css">
	.st0{fill:#F59099;}
</style>
<path class="st0" d="M105.5,13.2l-3.8,48.1c-0.1,0.8-0.8,1.4-1.6,1.4c-0.8-0.1-1.4-0.7-1.4-1.4l-2.2-48.2c-0.1-2.5,1.8-4.6,4.3-4.7
	s4.6,1.8,4.7,4.3C105.5,12.8,105.5,13,105.5,13.2z"/>
<path class="st0" d="M93.6,192.2l3.8-48.1c0.1-0.8,0.8-1.4,1.6-1.4c0.8,0.1,1.4,0.7,1.4,1.4l2.2,48.2c0.1,2.5-1.8,4.6-4.3,4.7
	s-4.6-1.8-4.7-4.3C93.5,192.5,93.5,192.3,93.6,192.2z"/>
<path class="st0" d="M59.9,22.2l20.8,43.6c0.4,0.7,0,1.6-0.7,2c-0.7,0.3-1.5,0.1-1.9-0.5l-26-40.6c-1.3-2.1-0.7-4.9,1.4-6.2
	c2.1-1.3,4.9-0.7,6.2,1.4C59.8,21.9,59.9,22,59.9,22.2z"/>
<path class="st0" d="M139.1,183.2l-20.8-43.6c-0.4-0.7,0-1.6,0.7-2c0.7-0.3,1.5-0.1,1.9,0.5l26,40.6c1.3,2.1,0.7,4.9-1.4,6.2
	c-2.1,1.3-4.9,0.7-6.2-1.4C139.3,183.5,139.2,183.3,139.1,183.2z"/>
<path class="st0" d="M25,52.8l39.8,27.3c0.7,0.5,0.9,1.4,0.4,2.1c-0.4,0.6-1.3,0.8-1.9,0.5L20.4,60.5c-2.2-1.1-3.1-3.9-1.9-6.1
	c1.1-2.2,3.9-3.1,6.1-1.9C24.7,52.6,24.9,52.7,25,52.8z"/>
<path class="st0" d="M174,152.6l-39.8-27.3c-0.7-0.5-0.9-1.4-0.4-2.1c0.4-0.6,1.3-0.8,1.9-0.5l42.9,22.2c2.2,1.1,3.1,3.9,1.9,6.1
	c-1.1,2.2-3.9,3.1-6.1,1.9C174.4,152.8,174.2,152.7,174,152.6z"/>
<path class="st0" d="M10,96.7l48.1,3.8c0.8,0.1,1.4,0.8,1.4,1.6c-0.1,0.8-0.7,1.4-1.4,1.4l-48.2,2.2c-2.5,0.1-4.6-1.8-4.7-4.3
	s1.8-4.6,4.3-4.7C9.7,96.7,9.9,96.7,10,96.7z"/>
<path class="st0" d="M189,108.6l-48.1-3.8c-0.8-0.1-1.4-0.8-1.4-1.6c0.1-0.8,0.7-1.4,1.4-1.4l48.2-2.2c2.5-0.1,4.6,1.8,4.7,4.3
	s-1.8,4.6-4.3,4.7C189.4,108.7,189.2,108.6,189,108.6z"/>
<path class="st0" d="M19,142.3l43.6-20.8c0.7-0.4,1.6,0,2,0.7c0.3,0.7,0.1,1.5-0.5,1.9l-40.6,26c-2.1,1.3-4.9,0.7-6.2-1.4
	c-1.3-2.1-0.7-4.9,1.4-6.2C18.7,142.4,18.9,142.3,19,142.3z"/>
<path class="st0" d="M180,63.1l-43.6,20.8c-0.7,0.4-1.6,0-2-0.7c-0.3-0.7-0.1-1.5,0.5-1.9l40.6-26c2.1-1.3,4.9-0.7,6.2,1.4
	c1.3,2.1,0.7,4.9-1.4,6.2C180.3,62.9,180.1,63,180,63.1z"/>
<path class="st0" d="M49.6,177.2l27.3-39.8c0.5-0.7,1.4-0.9,2.1-0.4c0.6,0.4,0.8,1.3,0.5,1.9l-22.2,42.9c-1.1,2.2-3.9,3.1-6.1,1.9
	c-2.2-1.1-3.1-3.9-1.9-6.1C49.4,177.5,49.5,177.3,49.6,177.2z"/>
<path class="st0" d="M149.4,28.2L122.1,68c-0.5,0.7-1.4,0.9-2.1,0.4c-0.6-0.4-0.8-1.3-0.5-1.9l22.2-42.9c1.1-2.2,3.9-3.1,6.1-1.9
	c2.2,1.1,3.1,3.9,1.9,6.1C149.6,27.8,149.5,28,149.4,28.2z"/>
<path class="st0" d="M109.7,66.5c-0.8-0.2-1.3-1.1-1-1.9l6.7-23.4c0.2-0.8,1.1-1.3,1.9-1s1.3,1.1,1,1.9l-6.7,23.4
	C111.3,66.3,110.5,66.8,109.7,66.5z"/>
<path class="st0" d="M82,163.6c-0.8-0.2-1.3-1.1-1-1.9l6.7-23.4c0.2-0.8,1.1-1.3,1.9-1c0.8,0.2,1.3,1.1,1,1.9l-6.7,23.4
	C83.6,163.4,82.8,163.8,82,163.6z"/>
<path class="st0" d="M63.6,92.2l-23.4-6.7c-0.8-0.2-1.3-1.1-1-1.9s1.1-1.3,1.9-1l23.4,6.7c0.8,0.2,1.3,1.1,1,1.9
	S64.4,92.4,63.6,92.2z"/>
<path class="st0" d="M158.7,119.3l-23.4-6.7c-0.8-0.2-1.3-1.1-1-1.9s1.1-1.3,1.9-1l23.4,6.7c0.8,0.2,1.3,1.1,1,1.9
	C160.3,119.1,159.5,119.6,158.7,119.3z"/>
<circle class="st0" cx="143.9" cy="59.7" r="4.9"/>
<circle class="st0" cx="156.1" cy="47.9" r="4.3"/>
<circle class="st0" cx="170.4" cy="34.1" r="2.5"/>
<circle class="st0" cx="56.5" cy="144.3" r="4.9"/>
<circle class="st0" cx="44.3" cy="156.1" r="4.3"/>
<circle class="st0" cx="30.1" cy="169.9" r="2.5"/>
<circle class="st0" cx="159.2" cy="87.2" r="4.9"/>
<circle class="st0" cx="175.7" cy="83.1" r="4.3"/>
<circle class="st0" cx="194.9" cy="78.3" r="2.5"/>
<circle class="st0" cx="41.2" cy="116.8" r="4.9"/>
<circle class="st0" cx="24.7" cy="120.9" r="4.3"/>
<circle class="st0" cx="5.5" cy="125.7" r="2.5"/>
<circle class="st0" cx="142.5" cy="145.7" r="4.9"/>
<circle class="st0" cx="154.3" cy="157.9" r="4.3"/>
<circle class="st0" cx="168.1" cy="172.2" r="2.5"/>
<circle class="st0" cx="57.9" cy="58.3" r="4.9"/>
<circle class="st0" cx="46.1" cy="46.1" r="4.3"/>
<circle class="st0" cx="32.3" cy="31.9" r="2.5"/>
<circle class="st0" cx="115" cy="161" r="4.9"/>
<circle class="st0" cx="119.1" cy="177.5" r="4.3"/>
<circle class="st0" cx="123.9" cy="196.7" r="2.5"/>
<circle class="st0" cx="85.4" cy="43" r="4.9"/>
<circle class="st0" cx="81.3" cy="26.5" r="4.3"/>
<circle class="st0" cx="76.5" cy="7.3" r="2.5"/>
<circle class="st0" cx="121.4" cy="27.3" r="2.5"/>
<circle class="st0" cx="79.1" cy="175.5" r="2.5"/>
<circle class="st0" cx="26.1" cy="80.3" r="2.5"/>
<circle class="st0" cx="174.3" cy="122.6" r="2.5"/>
</svg>
