<?xml version="1.0" encoding="utf-8"?>
<!-- Generator: Adobe Illustrator 22.1.0, SVG Export Plug-In . SVG Version: 6.00 Build 0)  -->
<svg version="1.1" id="Layer_1" xmlns="http://www.w3.org/2000/svg" xmlns:xlink="http://www.w3.org/1999/xlink" x="0px" y="0px"
	 viewBox="0 0 188 92" style="enable-background:new 0 0 188 92;" xml:space="preserve">
<style type="text/css">
	.st0{fill:#F59099;}
</style>
<g>
	<path class="st0" d="M10.6,52.7c0-10.3,7.6-17.6,16.4-17.6c7.3,0,12.6,4.7,12.6,9.2c0,1.5-0.9,2.7-2.3,2.7c-1,0-1.8-0.7-1.8-1.9
		c0-1.2,0.6-2,1.9-2.4c-0.9-3.2-5.1-5.9-10.4-5.9c-7.9,0-14.5,6.6-14.5,16c0,9.3,6.8,15.1,15.4,15.1c3.8,0,7.5-1.1,10.9-3.4
		l-0.1,1.9c-3,2-6.9,3.2-10.9,3.2C18.2,69.5,10.6,63.2,10.6,52.7z"/>
	<path class="st0" d="M41.7,67.3h6.5V11.6h-6.5V10h8.4v57.3h6.6V69h-15V67.3z"/>
	<path class="st0" d="M57.5,67.3h6.6V37.2h-6.6v-1.6H66v31.7h6.6V69H57.5V67.3z M62.3,21.1c0-1.2,1-2.2,2.1-2.2c1.2,0,2.1,1,2.1,2.2
		s-0.9,2.2-2.1,2.2C63.3,23.3,62.3,22.3,62.3,21.1z"/>
	<path class="st0" d="M71.5,52.3c0-9.6,7.2-17.2,16.8-17.2c9.7,0,16.8,7.4,16.8,17.2c0,9.6-7.2,17.2-16.8,17.2
		C78.5,69.5,71.5,62.1,71.5,52.3z M103,52.3c0-8.7-6.2-15.6-14.7-15.6c-8.6,0-14.8,6.8-14.8,15.6c0,8.7,6.2,15.6,14.8,15.6
		C96.8,67.8,103,61,103,52.3z"/>
	<path d="M110.1,81.1c-1.3-1.3-1.7-2.3-1.7-3.4c0-2.1,1.3-3.7,3.4-3.7s3.2,1.7,3.2,3.5c0,0.7-0.2,1.5-0.7,2.1c1.6,0.9,3.9,1.7,7,1.7
		c3.6,0,6.2-0.9,8.4-3.2c1.9-1.9,3.4-4.9,4.3-8.9l1.7-7.1c-2.8,4.6-7.3,6.9-11.9,6.9c-7.2,0-13-5.2-13-13.7
		c0-11.3,8.4-20.1,17.9-20.1c6.2,0,10.1,3.6,11.1,8.6l2-8.4h4.1l-8,34.4c-1.1,4.7-2.6,8.1-5.2,10.7c-2.9,2.9-6.7,4.3-11.5,4.3
		C116.8,84.8,111.9,82.9,110.1,81.1z M138.2,48.7c0-6.1-3.5-9.9-9.5-9.9c-8,0-13.5,7.7-13.5,16.3c0,6.2,3.6,10.1,9.3,10.1
		C132.9,65.3,138.2,56.5,138.2,48.7z"/>
	<path d="M147.6,55.4c0-10.5,8.1-20.2,18.8-20.2c8.8,0,13.9,6.5,13.9,14.2c0,10.5-8.1,20.2-18.8,20.2
		C152.7,69.6,147.6,63.1,147.6,55.4z M176.1,49.3c0-6.3-4.3-10.4-10-10.4c-8.1,0-14.4,7.7-14.4,16.6c0,6.3,4.3,10.4,10,10.4
		C169.8,65.9,176.1,58.1,176.1,49.3z"/>
</g>
</svg>
