<?xml version="1.0" encoding="utf-8"?>
<!-- Generator: Adobe Illustrator 22.1.0, SVG Export Plug-In . SVG Version: 6.00 Build 0)  -->
<svg version="1.1" id="Layer_1" xmlns="http://www.w3.org/2000/svg" xmlns:xlink="http://www.w3.org/1999/xlink" x="0px" y="0px"
	 viewBox="0 0 65.2 56" style="enable-background:new 0 0 65.2 56;" xml:space="preserve">
<style type="text/css">
	.st0{fill:#F597A7;}
</style>
<path class="st0" d="M64.6,8.6l-0.2-0.7c-0.1-0.2-0.2-0.4-0.3-0.5c-0.3-0.1-0.5-0.2-0.8-0.3L61,6.2l-2.2-0.8l-1.2-0.4
	c-0.4-0.1-0.9-0.4-1.3-0.4c-1-0.4-2.1-0.7-3.1-0.8l-1.4-0.4C51,3.2,50.2,3,49.4,2.9c-0.2,0-0.2-0.1-0.3-0.1c-0.4,0-0.7-0.1-1.1-0.2
	c-0.6-0.1-1.3-0.2-2-0.4c-0.6-0.1-1.4-0.2-2-0.4l-1.3-0.2l-1.5-0.2c-0.7-0.1-1.4-0.3-2.2-0.3l-2.5-0.3c-0.7,0-1.3,0-2,0.2
	C34.5,1,34.4,1,34.4,1c0,0.1,0.1,0.2,0.2,0.2c0,0.1,0,0.1,0.1,0c0.1-0.1,0.2-0.1,0.2-0.1l0.1,0c0.3,0.1,0.5,0.1,0.8,0.1
	c0.3,0,0.7,0,0.9,0.1c0.2-0.1,0.3-0.1,0.5,0l0,0.1c-0.1,0-0.3-0.1-0.4,0c-0.1,0-0.2,0-0.2,0l-1.5,0l-0.5,0.1l0,0.1l0.1,0
	c0,0.1,0.1,0.1,0.2,0.1l0,0.1l-0.3,0.1C34.4,2,34.5,2,34.6,2l0.2,0.1c0.6,0,1.1,0,1.7,0.1c1.1,0.1,2.2,0.3,3.4,0.5l0.3,0.1l1.9,0.3
	l0.2,0.1c0.7,0.1,1.4,0.3,2.1,0.4c1,0.2,2.1,0.4,3.1,0.7c-0.2,0-0.5,0-0.7,0c-1.5,0-3.2,0-4.9,0.2c-1,0.1-1.9,0.4-2.9,0.5
	c-0.8,0.1-1.6,0.3-2.5,0.5c-0.8,0.2-2,0.6-2.9,0.9C33,6.6,32,6.8,31.2,7c-1.2,0.4-2.3,1.1-3.6,1.7c-1.1,0.5-2.2,1-3.3,1.7
	c-0.6,0.2-1.1,0.7-1.8,1C21.3,12,20,13,18.6,14.1c-2,1.6-4.1,3.3-5.9,5.3c-0.9,0.9-1.9,2-2.7,2.9c-0.9,1-1.7,2.2-2.4,3.4
	c0,0.1-0.2,0.2-0.3,0.4c-0.6,1.1-1.5,2.5-2,3.6c-0.7,1.5-1.6,3-2.2,4.4c-0.7,1.7-1.1,3.6-1.6,5.3c-0.4,1.5-0.8,3-0.8,4.4
	c0,0.6-0.2,1.1-0.1,1.6c-0.1,0.9-0.3,1.8-0.1,2.8c0.1,1.7,0.3,3.6,0.9,5.2c0.3,0.6,0.3,1,0.7,1.4c0,0.1,0.3,0.4,0.4,0.4
	c0.2,0.1,0.2,0.1,0.4,0.1c0.1,0.1,0.3,0.2,0.4,0.3c0.2,0.1,0.2,0.1,0.3,0c0.1,0,0.1,0,0.1,0c0-0.1,0-0.1,0-0.2c0,0,0,0-0.1,0
	c-0.5-1.1-0.7-2.2-1-3.2c-0.2-1.1-0.2-2.3-0.2-3.3c0-0.7-0.1-1.6,0.1-2.4c0-1.4,0.3-2.5,0.7-4c0.3-2,1-4.1,1.8-6.1
	c0.8-1.9,1.8-4,2.7-6c0.3-0.4,0.7-0.9,1-1.4c0.4-0.9,1.2-1.8,1.8-2.7c1-1.5,2-2.7,3.2-4c0.5-0.5,1.1-1.3,1.8-1.8
	c0.7-0.6,1.2-1.1,1.9-1.7c0.8-0.7,1.9-1.5,2.7-2.2c1.2-1,2.9-2.1,4.3-2.9c1.8-1,3.7-1.9,5.5-2.8c1.2-0.4,1.8-0.6,2.9-1
	c2.3-0.9,4.9-1.6,7.3-2c1.5-0.2,2.3-0.3,3.8-0.4c1.3,0,2.7-0.1,3.7,0c1.1,0,2.2,0.1,3.1,0.2c1.2,0.1,2.6,0.2,3.6,0.5
	c0.2,0,0.3,0,0.5,0c1,0.2,1.9,0.6,2.9,0.9c0.1,0,0.3,0.1,0.4,0.1l-1.9,0.5l-2,0.6l-0.5,0.2l-3.3,1.1L49.6,12c-1,0.3-1.8,0.6-2.7,1
	l-3,1.2c-1,0.5-1.9,1-2.8,1.5c-1,0.7-1.6,1.6-1.8,2.8l0,0.9c0,0.1,0,0.1,0,0.2c0,0.1,0.2,0.2,0.2,0.2c0.1,0.1,0.2,0,0.2-0.1
	c0.1-0.2,0.3-0.4,0.3-0.6c0.2-0.3,0.3-0.6,0.6-0.8c0.3-0.3,0.7-0.6,1.1-0.8c0.8-0.5,1.8-0.9,2.7-1.3l3.8-1.4l2.6-0.8l1.5-0.5l3.2-1
	l2.9-0.8l4-1.1c0.4-0.1,0.8-0.2,1.2-0.4l0.9-0.4c0.1,0,0.2-0.1,0.2-0.2C64.6,9.2,64.7,8.9,64.6,8.6z M35.5,1.7
	c-0.2,0.1-0.5,0.1-0.8,0C35,1.6,35.3,1.7,35.5,1.7c0.1-0.1,0.2-0.1,0.3-0.1l0.1,0.1C35.7,1.7,35.6,1.7,35.5,1.7z M36.9,1.8
	c-0.1,0-0.2-0.1-0.4,0c-0.1,0-0.2,0-0.3,0l0-0.1l0.3,0.1C36.6,1.7,36.7,1.7,36.9,1.8C36.9,1.7,36.9,1.8,36.9,1.8L36.9,1.8z
	 M38.1,1.9c-0.1,0.1-0.2,0-0.3,0c-0.2,0-0.2,0-0.4,0c-0.1,0-0.1,0-0.1-0.1l0.4,0.1C37.9,1.8,38.1,1.9,38.1,1.9c0.1,0,0.1,0,0.2,0.1
	L38.1,1.9z M38.4,1.6c-0.1,0-0.3-0.1-0.5-0.1c-0.1,0-0.2,0-0.4,0c-0.1,0-0.1,0-0.1-0.1l0.4,0.1C38.1,1.4,38.2,1.5,38.4,1.6
	C38.4,1.5,38.4,1.6,38.4,1.6z M39.2,2.2l-0.3-0.1l0-0.1L39.2,2.2L39.2,2.2z M39.1,1.7l-0.3-0.1l0.1-0.1L39.1,1.7L39.1,1.7z
	 M39.8,1.7l0.1,0c0.1,0,0,0.1,0.1,0.1L39.8,1.7L39.8,1.7z M39.8,2.2c0.2,0,0.3,0,0.4,0c0,0,0,0.1,0.1,0.1L39.8,2.2z M40.7,1.9
	C40.7,1.9,40.7,1.8,40.7,1.9l0.2,0C40.8,1.9,40.8,1.9,40.7,1.9z M41,2.5L41,2.5C41,2.4,41,2.4,41,2.5l0.2,0
	C41.1,2.5,41.1,2.5,41,2.5z M41.8,2.1L41.8,2.1L41.8,2.1L41.8,2.1z M42.3,2.7l-0.2-0.1C42.2,2.6,42.3,2.6,42.3,2.7
	C42.3,2.6,42.3,2.7,42.3,2.7z M43.6,3l-0.2-0.1c0,0-0.1,0-0.1-0.1L43.6,3L43.6,3z M44.9,3.2L44.9,3.2C44.9,3.2,45,3.1,44.9,3.2
	L44.9,3.2z M27.2,9.7c0,0.1,0,0.1-0.1,0.2C27.1,9.9,27.1,9.7,27.2,9.7z M24.6,11.1c0,0.1,0,0.1,0,0.1c0,0-0.1,0-0.1,0
	C24.6,11.2,24.6,11.1,24.6,11.1z M23.3,11.8c0.1,0.1-0.1,0.2-0.2,0.2C23.1,12,23.1,11.9,23.3,11.8z M21.6,13c0-0.1,0-0.2,0.2-0.3
	C21.8,12.9,21.7,13,21.6,13c0,0.1,0.1,0.1,0,0.2c-0.1,0-0.2,0-0.2,0C21.5,13.1,21.6,13,21.6,13z M21.1,13.3
	C21.2,13.3,21.2,13.3,21.1,13.3c-0.1,0.1-0.1,0.1-0.1,0.1C21,13.4,21,13.4,21.1,13.3z M20.1,13.9c0.1,0.1,0,0.2-0.2,0.3
	C20.1,14,20.1,13.9,20.1,13.9z M19.6,14.4c-0.2,0.4-0.6,0.6-1,0.8C18.7,14.8,19.2,14.6,19.6,14.4z M2,53.8c0-0.1,0-0.1,0.1-0.1
	C2,53.4,2,53.3,1.9,53.1c-0.1,0-0.1,0-0.2-0.1c0.1-0.1-0.1-0.2-0.1-0.2c0-0.1,0.1-0.1,0.1-0.2c0,0,0.1,0,0.1,0c0,0.1,0,0.2,0,0.3
	C2,52.8,2,52.9,2,52.9c0.2,0.2,0.2,0.5,0.3,0.8c0,0.1,0.1,0.1,0.1,0.2C2.2,53.9,2.1,53.9,2,53.8z M1.9,47.4c-0.1-0.3-0.1-0.6,0-0.8
	C2.1,46.9,2.1,47.1,1.9,47.4z M2,45.5c0.1,0.3,0.2,0.5,0,0.8C2,45.9,1.9,45.7,2,45.5z M1.9,47.9c0.2,0.2,0.2,0.4,0,0.6
	C1.8,48.3,1.8,48.1,1.9,47.9z M2.4,42.9c0.2,0.2,0.1,0.6,0,0.7c-0.1,0.4-0.1,0.6-0.3,0.8c0.2,0.2,0.2,0.4,0.1,0.6
	c0,0.1,0,0.1-0.2,0.1C2,44.9,2,44.6,2.1,44.4c0-0.2,0-0.4,0.1-0.6c0.1-0.1,0.1-0.1,0.1-0.2C2.2,43.4,2.2,43.1,2.4,42.9
	c0-0.2,0-0.5,0.2-0.7C2.7,42.5,2.5,42.7,2.4,42.9z M2.8,41.3c0,0.2-0.2,0.5-0.2,0.6c0-0.1-0.1-0.3,0-0.3c0.1-0.1,0.1-0.1,0.2-0.1
	c-0.2-0.3,0-0.6,0.1-0.8c0-0.1-0.1-0.3,0-0.4c0.1-0.1,0.1-0.1,0.2-0.1c0,0.1,0,0.3-0.1,0.4c0,0,0,0-0.1,0.1
	C3,40.8,2.9,41.2,2.8,41.3z M3.3,39.2c-0.1,0.1-0.1,0.1-0.2,0.1c0.1,0.3,0.1,0.4-0.1,0.6c-0.1-0.2-0.1-0.4,0.1-0.6
	c0.1-0.1,0.2-0.2,0.3-0.3C3.4,39.1,3.3,39.2,3.3,39.2z M8.7,27.6c-0.1,0-0.1,0.1-0.1,0.1c-0.1,0.3-0.1,0.5-0.3,0.6
	c-0.1,0.1-0.2,0.2-0.3,0.2c0,0.3-0.2,0.6-0.4,0.9c-0.1,0.1-0.2,0.5-0.5,0.8c0.1,0.1-0.1,0.3-0.2,0.4c0,0.4-0.3,0.7-0.4,0.8
	c0,0.3-0.1,0.4-0.3,0.6C6,32.5,5.8,33,5.4,33.3c0.1,0.2-0.1,0.4-0.2,0.5c0,0.1-0.2,0.3-0.3,0.4c0.2,0.3-0.1,0.5-0.1,0.6
	c0.1,0.2-0.1,0.3-0.3,0.6c0.2,0.2,0.1,0.3-0.2,0.5c0.1,0.2-0.1,0.3-0.2,0.5c0.2,0.3,0.1,0.4-0.1,0.6c0,0.1-0.1,0.2-0.3,0.4
	c0.2,0.3,0.1,0.4-0.1,0.6c0,0.2,0,0.5-0.2,0.7c-0.1-0.2-0.1-0.5,0-0.6c0.1-0.1,0.1-0.1,0.2-0.1c-0.2-0.3,0-0.5,0.1-0.6
	c0-0.1,0-0.2,0.1-0.4c0.1-0.1,0.1-0.1,0.2-0.1c-0.2-0.3,0-0.5,0.1-0.6c0-0.1,0-0.3,0.1-0.4C4.2,36,4.2,36,4.3,36
	c-0.1-0.3,0.1-0.4,0.2-0.5c0-0.1,0-0.3,0.1-0.5c0.1-0.1,0.1-0.1,0.2-0.1c-0.2-0.3-0.1-0.4,0.1-0.6C4.9,34.2,5,34,5.1,34
	c0.1-0.1,0.1-0.1,0.2-0.1c-0.1-0.3,0.1-0.4,0.2-0.5c0.1-0.5,0.3-1,0.7-1.3c-0.1-0.2,0-0.4,0.3-0.6c-0.1-0.3,0.2-0.6,0.3-0.7
	c0-0.1,0-0.4,0.2-0.5c0.1-0.1,0.1-0.1,0.2-0.1c0-0.3,0.2-0.6,0.4-0.9C7.7,29,7.8,28.7,8,28.5C8,28.2,8.2,28,8.6,27.7
	c0-0.2,0.2-0.6,0.4-0.8C9,27.2,8.9,27.5,8.7,27.6z M42.1,6.7c0,0-0.2,0.2-0.4,0.2C40.2,7,38.5,7.3,37,7.7c-1.5,0.4-3.1,0.9-4.7,1.4
	c-3.1,1.1-6.1,2.7-8.7,4.2c-2.8,1.6-5.3,3.7-7.8,5.8c-0.9,1-1.9,2-2.9,3.1c-0.4,0.5-0.8,0.9-1.2,1.3c-0.1,0.1-0.2,0.2-0.4,0.3
	c-0.2,0.4-0.5,0.8-0.9,1.3c-0.1,0-0.1,0.1-0.1,0.1c-0.3,0.5-0.6,1.1-1.2,1.7c0.2-0.5,0.8-1.3,1.3-1.9c0,0,0-0.2,0.1-0.3
	c0.3-0.4,0.5-0.7,0.8-0.9c0.1-0.2,0.2-0.3,0.4-0.6c0.2-0.3,0.6-0.8,1-1.3c1.6-1.9,3.7-3.6,5.7-5.3c3.3-2.7,7.2-5,11.2-6.8
	c2-0.9,4.1-1.5,6.3-2.1c1.8-0.5,3.9-1,5.9-1.2c0.2,0,0.2,0,0.4,0c0.1,0,0.1,0.1,0.2,0.1C42.3,6.6,42.2,6.7,42.1,6.7z M43.2,5.8
	c-0.2,0-0.3,0-0.4,0c-3.3,0.5-4.9,0.8-8,1.7c-2,0.6-4.1,1.5-6.1,2.4c-4.8,2.2-9.4,5.2-13.2,8.7c-2.2,2-4.1,4.2-5.8,6.6
	C7.2,28.4,5,32.4,3.7,36.2c-0.9,2.7-1.8,5.6-2.1,8.6c0,0,0.1,0.2,0,0.3c0,0.4-0.1,0.8-0.1,1.2c0,0.4,0.1,0.9,0,1.4
	c0,0.1,0,0.3,0,0.5c0.1,1.6,0.2,2.4,0.4,3.9c-0.1,0.1,0,0.3,0,0.4c-0.2-0.1-0.2-0.2-0.2-0.2c0-0.2-0.1-0.4-0.1-0.4
	c-0.1,0-0.1,0-0.2-0.1c0-0.1,0-0.1,0.1-0.1c-0.1,0-0.1,0-0.2-0.1c0-0.1,0-0.1,0-0.2c0.1-0.1-0.1-0.2,0-0.4c0-0.1-0.1-0.1-0.1-0.1
	c0-0.1-0.1-0.1,0-0.3c0,0,0.1-0.1-0.1-0.2c0-0.1,0-0.1-0.1-0.1c0-0.1,0.1-0.1,0.1-0.2c-0.1,0,0-0.2,0-0.2c-0.1-0.1-0.1-0.1,0-0.3
	c0-0.1,0-0.1-0.1-0.2c0-0.1,0-0.1,0-0.1c0-0.1,0-0.1,0-0.3c0,0,0.1-0.1,0-0.2c0-0.1,0-0.1,0-0.3c0,0,0,0,0-0.1C1,48.2,1.1,48,1.1,48
	c-0.1,0,0-0.1,0-0.1s0-0.1,0.2-0.1c0.1-0.1,0.1-0.1,0.1-0.2c0,0-0.1-0.2-0.2-0.2c0-0.1,0-0.1,0-0.2c0-0.1,0.1-0.1,0.1-0.1
	c-0.1-0.2-0.1-0.2-0.1-0.2C1,46.7,1,46.7,1.1,46.6C0.9,46.5,1,46.4,1,46.4c0-0.1-0.1-0.2,0-0.3c0-0.1,0-0.1,0.1-0.3
	c0.1-0.1,0.1-0.1,0.1-0.2c-0.1-0.1,0-0.2,0-0.2c0-0.1,0-0.1,0-0.2c0,0-0.1-0.1,0-0.2c0.1-0.1,0.2-0.3,0.1-0.4c0-0.1,0-0.1,0-0.2
	c0-0.1,0.1-0.1,0.1-0.1c0-0.2,0-0.2,0-0.3c-0.2-0.3-0.1-0.4,0-0.5c0-0.1,0-0.1,0-0.3c0,0,0.1-0.1,0-0.2c0-0.1,0.1-0.3,0.2-0.5
	c0,0,0,0,0.1-0.1c0.2-0.2,0.3-0.4,0.2-0.5c-0.1,0-0.1-0.1-0.1-0.1c0-0.1,0.1-0.1,0.1-0.1c-0.1-0.1-0.1-0.1,0-0.2
	c-0.1-0.1-0.1-0.2-0.1-0.2c0.1-0.1,0.2-0.2,0.3-0.4c0,0,0.1-0.1,0-0.2c0-0.1,0.1-0.1,0.1-0.1c0-0.2,0-0.2,0.1-0.4
	C2.1,40.1,2,40,2,39.9c0,0,0.1-0.1,0-0.2c0.1-0.1,0.2-0.2,0.3-0.3c-0.1,0-0.1,0,0-0.1c-0.1-0.3-0.1-0.4,0.1-0.7c0,0,0.1-0.1-0.1-0.2
	c0.1-0.1,0.2-0.2,0.3-0.3c0-0.1,0-0.1-0.1-0.2c0.1-0.2,0.1-0.5,0.2-0.6c0.1-0.1,0.1-0.2,0.2-0.3c-0.1-0.1-0.1-0.2,0-0.2
	c0-0.1,0-0.1,0-0.2C3,36.4,3,36.3,3.1,36.2c0-0.1,0.1-0.1,0.1-0.1c-0.1-0.3,0.1-0.5,0.2-0.6c0.1-0.1,0.1-0.1,0.1-0.3
	c0,0,0-0.1,0.1-0.2C3.5,35,3.5,35,3.7,35c0-0.1,0-0.1,0-0.2c0,0,0-0.2,0.1-0.4c0.1-0.1,0.1-0.1,0.1-0.3C3.9,34,4,34,4,33.9
	c0-0.1,0-0.1,0.1-0.2c-0.1-0.2,0.1-0.3,0.1-0.4c0,0,0.1-0.1,0-0.2c0.1-0.1,0.2-0.2,0.3-0.3c-0.1-0.1-0.1-0.2-0.1-0.2
	c-0.1-0.2,0.1-0.3,0.2-0.4c0-0.1,0.1-0.2,0.3-0.4c-0.1-0.2,0-0.4,0.2-0.5c-0.1-0.1-0.1-0.1,0-0.1c0,0,0.1-0.1,0.2-0.1
	c0-0.2,0-0.2,0.2-0.4c-0.1-0.1-0.1-0.1,0-0.2c0.1-0.1,0.1-0.1,0.2-0.3C5.9,30.1,5.9,30,6,30c-0.1-0.3,0.1-0.5,0.3-0.7
	c-0.1-0.1,0-0.1,0.1-0.2c0.1-0.1,0.1-0.1,0.2-0.1c-0.1-0.1-0.1-0.1,0-0.2c0-0.1,0-0.1,0-0.2c0-0.1,0.1-0.3,0.2-0.4
	C6.9,28.1,7,28.1,7,28.1c0-0.2,0.1-0.3,0.2-0.4c0-0.1,0-0.3,0.1-0.4c0.1-0.1,0.1-0.1,0.2-0.1c0-0.2,0-0.2,0.1-0.3
	c0-0.2,0.1-0.4,0.3-0.5c0.1-0.1,0.2-0.2,0.4-0.3c-0.1-0.2,0.1-0.4,0.3-0.5c0.1-0.1,0.2-0.1,0.3-0.2c-0.2-0.2,0.1-0.5,0.2-0.6
	c0.1-0.1,0.2-0.1,0.3-0.2c-0.1-0.1,0.1-0.2,0.1-0.3c0-0.1,0.2-0.3,0.3-0.4c0.1-0.1,0.1-0.1,0.1,0c0.1-0.2,0.2-0.3,0.3-0.4
	c0-0.1,0-0.3,0.2-0.4c0.1-0.1,0.1-0.1,0.2,0c-0.1-0.1,0-0.2,0.1-0.3c0.1-0.2,0.1-0.3,0.3-0.4c0,0,0-0.1,0-0.1c0.1-0.1,0.1,0,0.2,0
	c-0.1-0.2,0.3-0.5,0.4-0.6c0-0.1,0-0.1,0-0.1c0.1-0.1,0.2-0.1,0.3-0.1c-0.1-0.1,0.1-0.2,0.1-0.3c0.1-0.3,0.3-0.5,0.7-0.7
	c0-0.1,0.1-0.2,0.3-0.3c0-0.1,0-0.1,0.1-0.2c0,0,0.1-0.1,0.2,0c-0.1-0.1,0.1-0.2,0.2-0.3c0-0.2,0.2-0.3,0.2-0.3
	c0.1,0,0.1-0.1,0.2-0.1c0.3-0.6,1.2-1,1.4-1.3c0-0.1,0-0.2,0.2-0.3c0-0.2,0.2-0.3,0.3-0.4c0.1,0,0.1-0.1,0.2-0.1
	c0.1-0.2,0.3-0.3,0.4-0.4c0-0.1,0-0.1,0-0.1s0.1,0,0.1,0c0.1-0.2,0.3-0.3,0.3-0.4c0.1-0.2,0.2-0.3,0.4-0.4c0.1-0.1,0.2-0.1,0.3-0.1
	c0.1-0.2,0.2-0.2,0.3-0.2c0.1-0.2,0.3-0.2,0.6-0.4c0,0.1-0.1,0.1-0.1,0.2c0.3-0.1,0.5-0.3,0.7-0.4c3.3-2.4,7-4.7,10.9-6.2
	c3.6-1.4,7.7-2.6,11.7-3c0.4,0,0.8-0.1,1.1,0c0,0,0.2-0.1,0.3-0.1c0.1,0,0.2,0.1,0.3,0C43.4,5.8,43.3,5.8,43.2,5.8z M43.5,5.7
	c0.1,0,0.1-0.1,0.3-0.1c0,0,0.1,0,0.1,0.1C43.7,5.7,43.6,5.7,43.5,5.7z M60.8,8.5c0-0.1,0-0.2-0.1-0.3c0-0.1-0.1-0.1-0.1-0.2l0.1,0
	l0.4,0.3C61,8.4,60.9,8.4,60.8,8.5z"/>
</svg>
