<?xml version="1.0" encoding="utf-8"?>
<!-- Generator: Adobe Illustrator 22.1.0, SVG Export Plug-In . SVG Version: 6.00 Build 0)  -->
<svg version="1.1" id="Layer_1" xmlns="http://www.w3.org/2000/svg" xmlns:xlink="http://www.w3.org/1999/xlink" x="0px" y="0px"
	 viewBox="0 0 41.6 50" style="enable-background:new 0 0 41.6 50;" xml:space="preserve">
<style type="text/css">
	.st0{opacity:0.23;fill:#F59099;enable-background:new    ;}
</style>
<path class="st0" d="M27.1,46V25.7c-2,4.3-5.2,6.5-9.4,6.5S10.1,30.8,7.6,28s-3.7-6.5-3.7-11.1S5.1,8.6,7.6,5.8s5.9-4.2,10.1-4.2
	s7.4,2.2,9.3,6.6v-6h9.7v1.1l-4,0.6V46l4,0.6v1.2H20.3v-1.2L27.1,46z M10.2,14v5.7c0,7.3,2.6,11,7.8,11c2.5,0,4.6-1,6.4-3.1
	c1.7-2.1,2.6-4.6,2.7-7.4v-6.6c-0.1-3-1-5.5-2.7-7.6c-1.7-2-3.8-3-6.4-3C12.8,3,10.2,6.7,10.2,14z"/>
</svg>
